<?xml version="1.0" encoding="UTF-8" standalone="no"?>
<!-- Created with Inkscape (http://www.inkscape.org/) -->

<svg
   width="161.04475mm"
   height="144.76877mm"
   viewBox="0 0 161.04475 144.76877"
   version="1.1"
   id="svg1"
   inkscape:version="1.4.3 (1:1.4.3+202512261035+0d15f75042)"
   sodipodi:docname="mythos_opt_diagram.svg"
   xmlns:inkscape="http://www.inkscape.org/namespaces/inkscape"
   xmlns:sodipodi="http://sodipodi.sourceforge.net/DTD/sodipodi-0.dtd"
   xmlns="http://www.w3.org/2000/svg"
   xmlns:svg="http://www.w3.org/2000/svg">
  <sodipodi:namedview
     id="namedview1"
     pagecolor="#505050"
     bordercolor="#eeeeee"
     borderopacity="1"
     inkscape:showpageshadow="0"
     inkscape:pageopacity="0"
     inkscape:pagecheckerboard="0"
     inkscape:deskcolor="#d1d1d1"
     inkscape:document-units="mm"
     inkscape:zoom="1.2208008"
     inkscape:cx="206.42188"
     inkscape:cy="201.91664"
     inkscape:window-width="1920"
     inkscape:window-height="1043"
     inkscape:window-x="0"
     inkscape:window-y="0"
     inkscape:window-maximized="1"
     inkscape:current-layer="layer1" />
  <defs
     id="defs1">
    <marker
       style="overflow:visible"
       id="Triangle"
       refX="0"
       refY="0"
       orient="auto-start-reverse"
       inkscape:stockid="Triangle arrow"
       markerWidth="1"
       markerHeight="1"
       viewBox="0 0 1 1"
       inkscape:isstock="true"
       inkscape:collect="always"
       preserveAspectRatio="xMidYMid">
      <path
         transform="scale(0.5)"
         style="fill:context-stroke;fill-rule:evenodd;stroke:context-stroke;stroke-width:1pt"
         d="M 5.77,0 -2.88,5 V -5 Z"
         id="path135" />
    </marker>
    <marker
       style="overflow:visible"
       id="Triangle-2"
       refX="0"
       refY="0"
       orient="auto-start-reverse"
       inkscape:stockid="Triangle arrow"
       markerWidth="1"
       markerHeight="1"
       viewBox="0 0 1 1"
       inkscape:isstock="true"
       inkscape:collect="always"
       preserveAspectRatio="xMidYMid">
      <path
         transform="scale(0.5)"
         style="fill:context-stroke;fill-rule:evenodd;stroke:context-stroke;stroke-width:1pt"
         d="M 5.77,0 -2.88,5 V -5 Z"
         id="path135-7" />
    </marker>
    <marker
       style="overflow:visible"
       id="Triangle-2-0"
       refX="0"
       refY="0"
       orient="auto-start-reverse"
       inkscape:stockid="Triangle arrow"
       markerWidth="1"
       markerHeight="1"
       viewBox="0 0 1 1"
       inkscape:isstock="true"
       inkscape:collect="always"
       preserveAspectRatio="xMidYMid">
      <path
         transform="scale(0.5)"
         style="fill:context-stroke;fill-rule:evenodd;stroke:context-stroke;stroke-width:1pt"
         d="M 5.77,0 -2.88,5 V -5 Z"
         id="path135-7-6" />
    </marker>
  </defs>
  <g
     inkscape:label="Layer 1"
     inkscape:groupmode="layer"
     id="layer1"
     transform="translate(-22.7573,-25.543877)">
    <circle
       style="fill:#80b3ff;stroke:#000000;stroke-width:0.432001;stroke-opacity:0.532996"
       id="path1"
       cx="46.163338"
       cy="66.752625"
       r="23.190037" />
    <circle
       style="fill:#ac939d;stroke:#000000;stroke-width:0.432001;stroke-opacity:0.532996"
       id="path1-5"
       cx="157.43358"
       cy="66.752625"
       r="23.190037" />
    <circle
       style="fill:#ffccaa;stroke:#000000;stroke-width:0.432001;stroke-opacity:0.532996"
       id="path1-5-2"
       cx="101.79846"
       cy="146.9066"
       r="23.190037" />
    <path
       style="opacity:1;fill:none;stroke:#000000;stroke-width:1.932;stroke-dasharray:none;stroke-opacity:1;marker-end:url(#Triangle)"
       d="m 70.938055,48.330638 c -2.04042,-1.870385 28.492807,-27.034463 58.300185,0"
       id="path2"
       sodipodi:nodetypes="cc" />
    <path
       style="fill:none;stroke:#000000;stroke-width:1.932;stroke-dasharray:none;stroke-opacity:1;marker-end:url(#Triangle-2)"
       d="m 168.9674,96.46779 c 2.73026,-0.455329 3.74695,39.09812 -35.91032,45.92779"
       id="path2-9"
       sodipodi:nodetypes="cc" />
    <path
       style="fill:none;stroke:#000000;stroke-width:1.932;stroke-dasharray:none;stroke-opacity:1;marker-end:url(#Triangle-2-0)"
       d="m 76.109107,146.85799 c -0.15842,2.76343 -38.961062,-4.97374 -36.870638,-45.16048"
       id="path2-9-6"
       sodipodi:nodetypes="cc" />
    <path
       style="font-size:9.87778px;font-family:Lato;-inkscape-font-specification:Lato;stroke:#000000;stroke-width:0.2"
       d="m 27.990698,64.379491 q -0.04445,0.07408 -0.09878,0.113594 -0.04939,0.03457 -0.123472,0.03457 -0.08396,0 -0.197556,-0.08396 -0.113594,-0.08396 -0.286455,-0.182739 -0.167922,-0.103716 -0.409928,-0.187677 -0.237067,-0.08396 -0.57785,-0.08396 -0.321028,0 -0.567973,0.0889 -0.242005,0.08396 -0.409927,0.232127 -0.162984,0.148167 -0.246945,0.350662 -0.08396,0.197555 -0.08396,0.429683 0,0.296333 0.143228,0.493889 0.148166,0.192617 0.385233,0.330906 0.242006,0.138289 0.543278,0.242005 0.306211,0.09878 0.6223,0.207434 0.321028,0.108655 0.6223,0.246944 0.306211,0.13335 0.543278,0.340784 0.242006,0.207433 0.385234,0.508705 0.148166,0.301272 0.148166,0.740834 0,0.464255 -0.158044,0.874183 -0.158045,0.404989 -0.464256,0.706261 -0.301272,0.301273 -0.745772,0.474134 -0.439561,0.172861 -1.002595,0.172861 -0.691444,0 -1.254478,-0.246944 -0.563033,-0.251884 -0.963083,-0.676628 l 0.276577,-0.454378 q 0.03951,-0.05433 0.09384,-0.0889 0.05927,-0.03951 0.128411,-0.03951 0.06421,0 0.143228,0.05433 0.08396,0.04939 0.187678,0.128412 0.103717,0.07902 0.237067,0.172861 0.13335,0.09384 0.301272,0.172861 0.172861,0.07902 0.390172,0.13335 0.217312,0.04939 0.48895,0.04939 0.340784,0 0.607484,-0.09384 0.2667,-0.09384 0.449439,-0.261761 0.187678,-0.172861 0.286456,-0.409928 0.09878,-0.237067 0.09878,-0.528461 0,-0.321028 -0.148166,-0.523523 -0.143228,-0.207433 -0.380295,-0.345722 -0.237067,-0.138289 -0.543278,-0.232128 -0.306211,-0.09878 -0.6223,-0.197555 -0.316089,-0.103717 -0.6223,-0.237067 -0.306211,-0.13335 -0.543278,-0.345722 -0.237067,-0.212373 -0.385233,-0.528462 -0.143228,-0.321028 -0.143228,-0.790222 0,-0.375356 0.143228,-0.726017 0.148166,-0.350661 0.424744,-0.6223 0.281517,-0.271639 0.686506,-0.434622 0.409928,-0.162984 0.938389,-0.162984 0.592667,0 1.076678,0.187678 0.48895,0.187678 0.859367,0.543278 z m 2.415118,0.968022 v 5.003096 h -0.879122 v -5.003096 z m 0.187678,-1.570567 q 0,0.128411 -0.05433,0.242006 -0.04939,0.108655 -0.138289,0.197555 -0.08396,0.08396 -0.202494,0.13335 -0.113595,0.04939 -0.242006,0.04939 -0.128411,0 -0.242005,-0.04939 -0.108656,-0.04939 -0.192617,-0.13335 -0.08396,-0.0889 -0.13335,-0.197555 -0.04939,-0.113595 -0.04939,-0.242006 0,-0.128411 0.04939,-0.242005 0.04939,-0.118534 0.13335,-0.202495 0.08396,-0.0889 0.192617,-0.138289 0.113594,-0.04939 0.242005,-0.04939 0.128411,0 0.242006,0.04939 0.118533,0.04939 0.202494,0.138289 0.0889,0.08396 0.138289,0.202495 0.05433,0.113594 0.05433,0.242005 z m 1.254476,6.573663 v -5.003096 h 0.528461 q 0.187678,0 0.232128,0.182739 l 0.06421,0.513645 q 0.276577,-0.340784 0.6223,-0.558095 0.345722,-0.217311 0.8001,-0.217311 0.503767,0 0.814917,0.281517 0.316089,0.281516 0.454378,0.760589 0.108655,-0.271639 0.276578,-0.469195 0.172861,-0.197555 0.385233,-0.325966 0.212372,-0.128412 0.449439,-0.187678 0.242006,-0.05927 0.48895,-0.05927 0.395111,0 0.701322,0.128411 0.31115,0.123472 0.523523,0.365478 0.217311,0.242006 0.330905,0.597606 0.113595,0.350661 0.113595,0.805039 v 3.185584 h -0.884061 v -3.185584 q 0,-0.587728 -0.256823,-0.889 -0.256822,-0.306212 -0.740833,-0.306212 -0.217311,0 -0.414867,0.07902 -0.192617,0.07408 -0.340783,0.22225 -0.148167,0.148166 -0.237067,0.375355 -0.08396,0.22225 -0.08396,0.518584 v 3.185584 h -0.884062 v -3.185584 q 0,-0.602545 -0.242005,-0.898878 -0.242006,-0.296334 -0.706261,-0.296334 -0.325967,0 -0.602545,0.1778 -0.276578,0.172862 -0.508706,0.474134 v 3.728862 z m 12.238572,-5.003096 v 5.003096 h -0.523523 q -0.187677,0 -0.237066,-0.182739 l -0.06914,-0.538339 q -0.325966,0.360539 -0.730955,0.582789 -0.404989,0.217311 -0.928512,0.217311 -0.409928,0 -0.726017,-0.13335 -0.31115,-0.138289 -0.523522,-0.385233 -0.212372,-0.246945 -0.321028,-0.597606 -0.103716,-0.350661 -0.103716,-0.775406 v -3.190523 h 0.879122 v 3.190523 q 0,0.567973 0.256822,0.879123 0.261761,0.31115 0.795162,0.31115 0.390172,0 0.726016,-0.182739 0.340784,-0.187678 0.627239,-0.513645 v -3.684412 z m 2.301531,-2.271889 v 7.274985 h -0.879122 v -7.274985 z m 4.133851,5.022851 q -0.607483,0.01976 -1.037167,0.09878 -0.424744,0.07408 -0.696383,0.197555 -0.2667,0.123473 -0.390173,0.291395 -0.118533,0.167922 -0.118533,0.375356 0,0.197555 0.06421,0.340783 0.06421,0.143228 0.172861,0.237067 0.113594,0.0889 0.261761,0.13335 0.153105,0.03951 0.325967,0.03951 0.232127,0 0.424744,-0.04445 0.192617,-0.04939 0.360539,-0.138289 0.172861,-0.0889 0.325967,-0.212372 0.158044,-0.123473 0.306211,-0.281517 z m -2.839862,-2.0447 q 0.414867,-0.400051 0.893939,-0.597606 0.479073,-0.197556 1.061862,-0.197556 0.419805,0 0.745772,0.138289 0.325967,0.138289 0.548217,0.385234 0.22225,0.246944 0.335844,0.597605 0.113595,0.350661 0.113595,0.770467 v 3.200401 h -0.390172 q -0.128412,0 -0.197556,-0.03951 -0.06914,-0.04445 -0.108656,-0.167923 l -0.09878,-0.474133 q -0.197556,0.182739 -0.385234,0.325967 -0.187678,0.138289 -0.395111,0.237066 -0.207433,0.09384 -0.4445,0.143228 -0.232128,0.05433 -0.518584,0.05433 -0.291394,0 -0.548216,-0.07902 -0.256823,-0.08396 -0.449439,-0.246945 -0.187678,-0.162983 -0.301273,-0.409928 -0.108655,-0.251883 -0.108655,-0.592666 0,-0.296334 0.162983,-0.567973 0.162984,-0.276578 0.528461,-0.48895 0.365478,-0.212372 0.953206,-0.345722 0.587728,-0.138289 1.442156,-0.158045 v -0.390172 q 0,-0.582789 -0.251883,-0.879122 -0.251884,-0.301273 -0.735895,-0.301273 -0.325967,0 -0.548217,0.08396 -0.217311,0.07902 -0.380294,0.182738 -0.158045,0.09878 -0.276578,0.182739 -0.113595,0.07902 -0.227189,0.07902 -0.0889,0 -0.153106,-0.04445 -0.06421,-0.04939 -0.108655,-0.118534 z m 6.509453,4.375856 q -0.592667,0 -0.913694,-0.330906 -0.316089,-0.330905 -0.316089,-0.953205 v -3.062112 h -0.602545 q -0.07902,0 -0.13335,-0.04445 -0.05433,-0.04939 -0.05433,-0.148167 V 65.54013 l 0.819856,-0.103717 0.202494,-1.545872 q 0.01482,-0.07408 0.06421,-0.118534 0.05433,-0.04939 0.138289,-0.04939 h 0.4445 v 1.723673 h 1.447095 v 0.637117 h -1.447095 v 3.002845 q 0,0.316089 0.153106,0.469195 0.153105,0.153105 0.395111,0.153105 0.138289,0 0.237067,-0.03457 0.103716,-0.03951 0.1778,-0.08396 0.07408,-0.04445 0.123472,-0.07902 0.05433,-0.03951 0.09384,-0.03951 0.06914,0 0.123472,0.08396 l 0.256822,0.419805 q -0.227189,0.212372 -0.548217,0.335845 -0.321027,0.118533 -0.661811,0.118533 z m 4.089391,-5.16114 q 0.548217,0 0.987778,0.182739 0.439561,0.182739 0.750711,0.518583 0.31115,0.335845 0.474134,0.814917 0.167922,0.474134 0.167922,1.061862 0,0.592666 -0.167922,1.0668 -0.162984,0.474133 -0.474134,0.809978 -0.31115,0.335844 -0.750711,0.518583 -0.439561,0.1778 -0.987778,0.1778 -0.553156,0 -0.997656,-0.1778 -0.439561,-0.182739 -0.750711,-0.518583 -0.31115,-0.335845 -0.479072,-0.809978 -0.162984,-0.474134 -0.162984,-1.0668 0,-0.587728 0.162984,-1.061862 0.167922,-0.479072 0.479072,-0.814917 0.31115,-0.335844 0.750711,-0.518583 0.4445,-0.182739 0.997656,-0.182739 z m 0,4.464757 q 0.740833,0 1.106311,-0.493889 0.365478,-0.498828 0.365478,-1.387829 0,-0.893939 -0.365478,-1.392766 -0.365478,-0.498828 -1.106311,-0.498828 -0.375356,0 -0.656872,0.128411 -0.276578,0.128411 -0.464256,0.370417 -0.182739,0.242005 -0.276578,0.597605 -0.0889,0.350661 -0.0889,0.795161 0,0.889001 0.365478,1.387829 0.370417,0.493889 1.121128,0.493889 z m 4.326463,-3.38314 q 0.237067,-0.513645 0.582789,-0.8001 0.345722,-0.291395 0.84455,-0.291395 0.158045,0 0.301272,0.03457 0.148167,0.03457 0.261762,0.108656 l -0.06421,0.656872 q -0.02963,0.123473 -0.148167,0.123473 -0.06914,0 -0.202494,-0.02963 -0.13335,-0.02963 -0.301272,-0.02963 -0.237067,0 -0.424745,0.06914 -0.182739,0.06914 -0.330906,0.207434 -0.143227,0.13335 -0.261761,0.335844 -0.113594,0.197556 -0.207433,0.454378 v 3.16089 h -0.884061 v -5.003096 h 0.503766 q 0.143228,0 0.197556,0.05433 0.05433,0.05433 0.07408,0.187678 z m 5.645149,-0.1778 q -0.05927,0.108655 -0.182739,0.108655 -0.07408,0 -0.167923,-0.05433 -0.09384,-0.05433 -0.232127,-0.118534 -0.13335,-0.06914 -0.321028,-0.123472 -0.187678,-0.05927 -0.4445,-0.05927 -0.22225,0 -0.40005,0.05927 -0.1778,0.05433 -0.306212,0.153106 -0.123472,0.09878 -0.192616,0.232128 -0.06421,0.128411 -0.06421,0.281516 0,0.192617 0.108656,0.321028 0.113594,0.128411 0.296333,0.22225 0.182739,0.09384 0.414867,0.167922 0.232128,0.06915 0.474133,0.153106 0.246945,0.07902 0.479073,0.1778 0.232127,0.09878 0.414866,0.246945 0.182739,0.148166 0.291395,0.365477 0.113594,0.212373 0.113594,0.513645 0,0.345722 -0.123472,0.642056 -0.123472,0.291394 -0.365478,0.508705 -0.242005,0.212373 -0.592667,0.335845 -0.350661,0.123472 -0.809978,0.123472 -0.523522,0 -0.948266,-0.167922 -0.424745,-0.172861 -0.721078,-0.439561 l 0.207433,-0.335845 q 0.03951,-0.06421 0.09384,-0.09878 0.05433,-0.03457 0.138289,-0.03457 0.0889,0 0.187678,0.06915 0.09878,0.06914 0.237066,0.153105 0.143228,0.08396 0.345723,0.153106 0.202494,0.06914 0.503766,0.06914 0.256823,0 0.449439,-0.06421 0.192617,-0.06915 0.321028,-0.182739 0.128411,-0.113595 0.187678,-0.261762 0.06421,-0.148166 0.06421,-0.316088 0,-0.207434 -0.113595,-0.340784 -0.108655,-0.138289 -0.291394,-0.232128 -0.182739,-0.09878 -0.419806,-0.167922 -0.232128,-0.07408 -0.479072,-0.153106 -0.242006,-0.07902 -0.479073,-0.1778 -0.232127,-0.103716 -0.414866,-0.256822 -0.182739,-0.153105 -0.296334,-0.375356 -0.108655,-0.227188 -0.108655,-0.548216 0,-0.286456 0.118533,-0.548217 0.118533,-0.2667 0.345722,-0.464256 0.227189,-0.202494 0.558095,-0.321028 0.330906,-0.118533 0.75565,-0.118533 0.493889,0 0.884061,0.158045 0.395112,0.153105 0.681567,0.424744 z"
       id="text3"
       aria-label="Simulators" />
    <path
       style="font-size:9.87778px;font-family:Lato;-inkscape-font-specification:Lato;stroke:#000000;stroke-width:0.2"
       d="m 87.009877,31.940961 -0.0049,0.780345 h -4.36104 v -7.077429 h 4.36104 v 0.780344 h -3.402896 v 2.350912 h 2.755901 v 0.750711 h -2.755901 v 2.415117 z m 5.240157,0.780345 h -0.84455 q -0.108656,0 -0.172862,-0.05433 -0.05927,-0.05927 -0.09878,-0.128411 l -1.259417,-1.960739 q -0.01976,0.06914 -0.04445,0.138289 -0.01976,0.06421 -0.05927,0.118533 l -1.165578,1.703917 q -0.04939,0.06914 -0.108656,0.128411 -0.05433,0.05433 -0.153105,0.05433 h -0.785284 l 1.753306,-2.568223 -1.684161,-2.434873 h 0.84455 q 0.108655,0 0.158044,0.03457 0.04939,0.03457 0.0889,0.09878 l 1.229784,1.876779 q 0.03951,-0.143228 0.123472,-0.276578 l 1.076678,-1.580445 q 0.04445,-0.06914 0.09384,-0.108656 0.05433,-0.04445 0.128411,-0.04445 h 0.809978 l -1.684161,2.390423 z m 1.694032,-1.205089 q 0.242005,0.325966 0.528461,0.459316 0.286455,0.13335 0.642055,0.13335 0.701323,0 1.076678,-0.498827 0.375356,-0.498828 0.375356,-1.422401 0,-0.48895 -0.0889,-0.839611 -0.08396,-0.350661 -0.246944,-0.572911 -0.162984,-0.227189 -0.40005,-0.330906 -0.237067,-0.103717 -0.538339,-0.103717 -0.429684,0 -0.755651,0.197556 -0.321027,0.197556 -0.592666,0.558095 z m -0.04445,-3.022601 q 0.316089,-0.390172 0.730955,-0.627239 0.414867,-0.237067 0.948267,-0.237067 0.434622,0 0.785284,0.167923 0.350661,0.162983 0.597605,0.48895 0.246945,0.321027 0.380295,0.8001 0.13335,0.479072 0.13335,1.101372 0,0.553156 -0.148167,1.032228 -0.148167,0.474134 -0.429683,0.824795 -0.276578,0.345722 -0.681567,0.548217 -0.40005,0.197555 -0.903817,0.197555 -0.459317,0 -0.790222,-0.153105 -0.325967,-0.158045 -0.57785,-0.434623 v 2.212623 H 93.060004 V 27.71821 h 0.528461 q 0.187678,0 0.232128,0.182739 z m 6.805784,-0.854428 q 0.54821,0 0.98778,0.182739 0.43956,0.182739 0.75071,0.518583 0.31115,0.335845 0.47413,0.814917 0.16792,0.474134 0.16792,1.061862 0,0.592666 -0.16792,1.0668 -0.16298,0.474133 -0.47413,0.809978 -0.31115,0.335844 -0.75071,0.518583 -0.43957,0.1778 -0.98778,0.1778 -0.55316,0 -0.997658,-0.1778 -0.439561,-0.182739 -0.750711,-0.518583 -0.31115,-0.335845 -0.479073,-0.809978 -0.162983,-0.474134 -0.162983,-1.0668 0,-0.587728 0.162983,-1.061862 0.167923,-0.479072 0.479073,-0.814917 0.31115,-0.335844 0.750711,-0.518583 0.444498,-0.182739 0.997658,-0.182739 z m 0,4.464757 q 0.74083,0 1.10631,-0.493889 0.36548,-0.498828 0.36548,-1.387828 0,-0.89394 -0.36548,-1.392767 -0.36548,-0.498828 -1.10631,-0.498828 -0.37536,0 -0.65687,0.128411 -0.276582,0.128411 -0.46426,0.370417 -0.182739,0.242005 -0.276578,0.597605 -0.0889,0.350661 -0.0889,0.795162 0,0.889 0.365478,1.387828 0.370417,0.493889 1.12113,0.493889 z m 6.40573,-3.56094 q -0.0593,0.108656 -0.18274,0.108656 -0.0741,0 -0.16792,-0.05433 -0.0938,-0.05433 -0.23213,-0.118534 -0.13335,-0.06914 -0.32103,-0.123472 -0.18767,-0.05927 -0.4445,-0.05927 -0.22225,0 -0.40005,0.05927 -0.1778,0.05433 -0.30621,0.153106 -0.12347,0.09878 -0.19261,0.232128 -0.0642,0.128411 -0.0642,0.281516 0,0.192617 0.10866,0.321028 0.11359,0.128411 0.29633,0.22225 0.18274,0.09384 0.41487,0.167922 0.23212,0.06914 0.47413,0.153106 0.24694,0.07902 0.47907,0.1778 0.23213,0.09878 0.41487,0.246945 0.18274,0.148166 0.29139,0.365477 0.1136,0.212373 0.1136,0.513645 0,0.345722 -0.12347,0.642056 -0.12348,0.291394 -0.36548,0.508705 -0.24201,0.212373 -0.59267,0.335845 -0.35066,0.123472 -0.80998,0.123472 -0.52352,0 -0.94826,-0.167922 -0.42475,-0.172861 -0.72108,-0.439561 L 104.03914,31.857 q 0.0395,-0.0642 0.0938,-0.09878 0.0543,-0.03457 0.13829,-0.03457 0.0889,0 0.18768,0.06915 0.0988,0.06914 0.23706,0.153105 0.14323,0.08396 0.34573,0.153106 0.20249,0.06914 0.50376,0.06914 0.25683,0 0.44944,-0.0642 0.19262,-0.06915 0.32103,-0.182739 0.12841,-0.113595 0.18768,-0.261761 0.0642,-0.148167 0.0642,-0.316089 0,-0.207434 -0.11359,-0.340784 -0.10866,-0.138289 -0.2914,-0.232128 -0.18273,-0.09878 -0.4198,-0.167922 -0.23213,-0.07408 -0.47907,-0.153106 -0.24201,-0.07902 -0.47908,-0.1778 -0.23212,-0.103716 -0.41486,-0.256822 -0.18274,-0.153105 -0.29634,-0.375356 -0.10865,-0.227188 -0.10865,-0.548216 0,-0.286456 0.11853,-0.548217 0.11854,-0.2667 0.34572,-0.464256 0.22719,-0.202494 0.5581,-0.321028 0.3309,-0.118533 0.75565,-0.118533 0.49389,0 0.88406,0.158045 0.39511,0.153105 0.68157,0.424744 z m 4.71171,1.131006 q 0,-0.306211 -0.0889,-0.558095 -0.084,-0.256822 -0.25189,-0.439561 -0.16298,-0.187678 -0.40005,-0.286456 -0.23706,-0.103716 -0.53833,-0.103716 -0.63218,0 -1.0026,0.370416 -0.36548,0.365478 -0.45438,1.017412 z m 0.7112,2.345972 q -0.16298,0.197556 -0.39017,0.345723 -0.22719,0.143228 -0.48895,0.237066 -0.25683,0.09384 -0.5334,0.138289 -0.27658,0.04939 -0.54822,0.04939 -0.51858,0 -0.95815,-0.172861 -0.43462,-0.1778 -0.75565,-0.513644 -0.31608,-0.340784 -0.49388,-0.839612 -0.1778,-0.498828 -0.1778,-1.145822 0,-0.523523 0.15804,-0.9779 0.16298,-0.454378 0.46426,-0.785284 0.30127,-0.335844 0.73589,-0.523522 0.43462,-0.192617 0.9779,-0.192617 0.44944,0 0.82973,0.153106 0.38524,0.148166 0.66181,0.434622 0.28152,0.281517 0.43957,0.701322 0.15804,0.414867 0.15804,0.948267 0,0.207434 -0.0444,0.276578 -0.0445,0.06915 -0.16792,0.06915 h -3.34363 q 0.0148,0.474133 0.12841,0.824794 0.11853,0.350661 0.32597,0.587728 0.20743,0.232128 0.49389,0.350661 0.28645,0.113595 0.64205,0.113595 0.33091,0 0.56797,-0.07408 0.24201,-0.07902 0.41487,-0.167922 0.17286,-0.0889 0.28646,-0.162983 0.11853,-0.07902 0.20249,-0.07902 0.10866,0 0.16792,0.08396 z m 4.06964,-3.476978 q -0.0593,0.108656 -0.18274,0.108656 -0.0741,0 -0.16792,-0.05433 -0.0938,-0.05433 -0.23213,-0.118534 -0.13335,-0.06914 -0.32102,-0.123472 -0.18768,-0.05927 -0.4445,-0.05927 -0.22225,0 -0.40005,0.05927 -0.1778,0.05433 -0.30621,0.153106 -0.12348,0.09878 -0.19262,0.232128 -0.0642,0.128411 -0.0642,0.281516 0,0.192617 0.10866,0.321028 0.11359,0.128411 0.29633,0.22225 0.18274,0.09384 0.41487,0.167922 0.23213,0.06914 0.47413,0.153106 0.24695,0.07902 0.47907,0.1778 0.23213,0.09878 0.41487,0.246945 0.18274,0.148166 0.2914,0.365477 0.11359,0.212373 0.11359,0.513645 0,0.345722 -0.12347,0.642056 -0.12347,0.291394 -0.36548,0.508705 -0.24201,0.212373 -0.59267,0.335845 -0.35066,0.123472 -0.80997,0.123472 -0.52353,0 -0.94827,-0.167922 -0.42475,-0.172861 -0.72108,-0.439561 L 113.53169,31.857 q 0.0395,-0.0642 0.0938,-0.09878 0.0543,-0.03457 0.13829,-0.03457 0.0889,0 0.18768,0.06915 0.0988,0.06914 0.23707,0.153105 0.14322,0.08396 0.34572,0.153106 0.20249,0.06914 0.50377,0.06914 0.25682,0 0.44943,-0.0642 0.19262,-0.06915 0.32103,-0.182739 0.12841,-0.113595 0.18768,-0.261761 0.0642,-0.148167 0.0642,-0.316089 0,-0.207434 -0.1136,-0.340784 -0.10865,-0.138289 -0.29139,-0.232128 -0.18274,-0.09878 -0.41981,-0.167922 -0.23213,-0.07408 -0.47907,-0.153106 -0.24201,-0.07902 -0.47907,-0.1778 -0.23213,-0.103716 -0.41487,-0.256822 -0.18274,-0.153105 -0.29633,-0.375356 -0.10866,-0.227188 -0.10866,-0.548216 0,-0.286456 0.11853,-0.548217 0.11854,-0.2667 0.34573,-0.464256 0.22719,-0.202494 0.55809,-0.321028 0.33091,-0.118533 0.75565,-0.118533 0.49389,0 0.88406,0.158045 0.39511,0.153105 0.68157,0.424744 z"
       id="text3-2"
       aria-label="Exposes" />
    <path
       style="font-size:9.87778px;font-family:Lato;-inkscape-font-specification:Lato;stroke:#000000;stroke-width:0.2"
       d="m 117.22246,43.527325 q 0.43956,0 0.78528,-0.148166 0.34572,-0.148167 0.58279,-0.414867 0.242,-0.2667 0.36548,-0.637117 0.12841,-0.370417 0.12841,-0.814917 v -4.301773 h 0.9532 v 4.301773 q 0,0.612422 -0.19755,1.135945 -0.19262,0.523522 -0.5581,0.908756 -0.36054,0.380294 -0.88406,0.597605 -0.52352,0.217311 -1.17545,0.217311 -0.65194,0 -1.17546,-0.217311 -0.52352,-0.217311 -0.889,-0.597605 -0.36548,-0.385234 -0.56303,-0.908756 -0.19262,-0.523523 -0.19262,-1.135945 v -4.301773 h 0.95321 v 4.296834 q 0,0.4445 0.12347,0.814917 0.12841,0.370417 0.36548,0.637117 0.242,0.2667 0.58772,0.419806 0.35066,0.148166 0.79023,0.148166 z m 5.06237,-0.4445 q 0.242,0.325967 0.52846,0.459317 0.28645,0.13335 0.64205,0.13335 0.70133,0 1.07668,-0.498828 0.37536,-0.498828 0.37536,-1.4224 0,-0.48895 -0.0889,-0.839612 -0.084,-0.350661 -0.24695,-0.572911 -0.16298,-0.227189 -0.40005,-0.330905 -0.23706,-0.103717 -0.53834,-0.103717 -0.42968,0 -0.75565,0.197555 -0.32102,0.197556 -0.59266,0.558095 z m -0.0444,-3.022601 q 0.31609,-0.390172 0.73095,-0.627239 0.41487,-0.237066 0.94827,-0.237066 0.43462,0 0.78528,0.167922 0.35066,0.162983 0.59761,0.48895 0.24694,0.321028 0.38029,0.8001 0.13335,0.479073 0.13335,1.101373 0,0.553155 -0.14816,1.032228 -0.14817,0.474133 -0.42969,0.824794 -0.27657,0.345723 -0.68156,0.548217 -0.40005,0.197556 -0.90382,0.197556 -0.45932,0 -0.79022,-0.153106 -0.32597,-0.158044 -0.57785,-0.434622 v 2.212623 h -0.88406 v -6.697135 h 0.52846 q 0.18768,0 0.23213,0.182739 z m 7.95654,0.414867 q -0.24694,-0.330905 -0.5334,-0.459317 -0.28645,-0.13335 -0.64205,-0.13335 -0.69639,0 -1.07174,0.498828 -0.37536,0.498828 -0.37536,1.422401 0,0.48895 0.084,0.839611 0.084,0.345722 0.24695,0.572911 0.16298,0.22225 0.40005,0.325967 0.23706,0.103717 0.53834,0.103717 0.43462,0 0.75565,-0.197556 0.32596,-0.197556 0.5976,-0.558095 z m 0.87912,-3.462162 v 7.274985 h -0.52352 q -0.18768,0 -0.23707,-0.182739 l -0.079,-0.607483 q -0.32103,0.385233 -0.73095,0.6223 -0.40993,0.237067 -0.94827,0.237067 -0.42968,0 -0.78034,-0.162984 -0.35067,-0.167922 -0.59761,-0.48895 -0.24694,-0.321028 -0.38029,-0.8001 -0.13335,-0.479072 -0.13335,-1.101372 0,-0.553156 0.14816,-1.027289 0.14817,-0.479073 0.42475,-0.829734 0.27657,-0.350661 0.67662,-0.548217 0.40499,-0.202494 0.90876,-0.202494 0.45932,0 0.78528,0.158044 0.33091,0.153106 0.58773,0.429684 v -2.770718 z m 4.10422,5.022851 q -0.60749,0.01976 -1.03717,0.09878 -0.42474,0.07408 -0.69638,0.197556 -0.2667,0.123472 -0.39018,0.291394 -0.11853,0.167923 -0.11853,0.375356 0,0.197556 0.0642,0.340783 0.0642,0.143228 0.17286,0.237067 0.11359,0.0889 0.26176,0.13335 0.1531,0.03951 0.32597,0.03951 0.23212,0 0.42474,-0.04445 0.19262,-0.04939 0.36054,-0.138289 0.17286,-0.0889 0.32597,-0.212372 0.15804,-0.123472 0.30621,-0.281517 z m -2.83986,-2.0447 q 0.41486,-0.40005 0.89393,-0.597606 0.47908,-0.197555 1.06187,-0.197555 0.4198,0 0.74577,0.138289 0.32596,0.138289 0.54821,0.385233 0.22225,0.246945 0.33585,0.597606 0.11359,0.350661 0.11359,0.770467 v 3.2004 h -0.39017 q -0.12841,0 -0.19755,-0.03951 -0.0692,-0.04445 -0.10866,-0.167922 l -0.0988,-0.474134 q -0.19755,0.182739 -0.38523,0.325967 -0.18768,0.138289 -0.39511,0.237067 -0.20744,0.09384 -0.4445,0.143228 -0.23213,0.05433 -0.51859,0.05433 -0.29139,0 -0.54821,-0.07902 -0.25682,-0.08396 -0.44944,-0.246944 -0.18768,-0.162984 -0.30127,-0.409928 -0.10866,-0.251883 -0.10866,-0.592667 0,-0.296333 0.16298,-0.567972 0.16299,-0.276578 0.52847,-0.48895 0.36547,-0.212373 0.9532,-0.345723 0.58773,-0.138289 1.44216,-0.158044 v -0.390172 q 0,-0.582789 -0.25189,-0.879123 -0.25188,-0.301272 -0.73589,-0.301272 -0.32597,0 -0.54822,0.08396 -0.21731,0.07902 -0.38029,0.182739 -0.15805,0.09878 -0.27658,0.182739 -0.11359,0.07902 -0.22719,0.07902 -0.0889,0 -0.1531,-0.04445 -0.0642,-0.04939 -0.10866,-0.118533 z m 6.50945,4.375857 q -0.59267,0 -0.9137,-0.330906 -0.31609,-0.330906 -0.31609,-0.953206 v -3.062112 h -0.60254 q -0.079,0 -0.13335,-0.04445 -0.0543,-0.04939 -0.0543,-0.148166 v -0.350662 l 0.81986,-0.103716 0.20249,-1.545873 q 0.0148,-0.07408 0.0642,-0.118533 0.0543,-0.04939 0.13828,-0.04939 h 0.4445 v 1.723673 h 1.4471 v 0.637116 h -1.4471 v 3.002845 q 0,0.316089 0.15311,0.469195 0.15311,0.153106 0.39511,0.153106 0.13829,0 0.23707,-0.03457 0.10372,-0.03951 0.1778,-0.08396 0.0741,-0.04445 0.12347,-0.07902 0.0543,-0.03951 0.0938,-0.03951 0.0691,0 0.12347,0.08396 l 0.25682,0.419806 q -0.22718,0.212372 -0.54821,0.335844 -0.32103,0.118534 -0.66181,0.118534 z m 5.32905,-3.126318 q 0,-0.306211 -0.0889,-0.558094 -0.084,-0.256823 -0.25189,-0.439562 -0.16298,-0.187677 -0.40005,-0.286455 -0.23706,-0.103717 -0.53833,-0.103717 -0.63218,0 -1.0026,0.370417 -0.36548,0.365478 -0.45438,1.017411 z m 0.7112,2.345973 q -0.16298,0.197555 -0.39017,0.345722 -0.22719,0.143228 -0.48895,0.237067 -0.25683,0.09384 -0.5334,0.138289 -0.27658,0.04939 -0.54822,0.04939 -0.51858,0 -0.95815,-0.172861 -0.43462,-0.1778 -0.75565,-0.513645 -0.31608,-0.340783 -0.49388,-0.839611 -0.1778,-0.498828 -0.1778,-1.145823 0,-0.523522 0.15804,-0.9779 0.16298,-0.454378 0.46426,-0.785283 0.30127,-0.335845 0.73589,-0.523523 0.43462,-0.192617 0.9779,-0.192617 0.44944,0 0.82973,0.153106 0.38524,0.148167 0.66181,0.434622 0.28152,0.281517 0.43957,0.701323 0.15804,0.414867 0.15804,0.948267 0,0.207433 -0.0445,0.276577 -0.0444,0.06915 -0.16792,0.06915 h -3.34363 q 0.0148,0.474133 0.12841,0.824795 0.11853,0.350661 0.32597,0.587727 0.20743,0.232128 0.49389,0.350662 0.28645,0.113594 0.64205,0.113594 0.33091,0 0.56797,-0.07408 0.24201,-0.07902 0.41487,-0.167922 0.17286,-0.0889 0.28646,-0.162984 0.11853,-0.07902 0.20249,-0.07902 0.10866,0 0.16792,0.08396 z m 4.06964,-3.476979 q -0.0593,0.108656 -0.18274,0.108656 -0.0741,0 -0.16792,-0.05433 -0.0938,-0.05433 -0.23213,-0.118533 -0.13335,-0.06914 -0.32102,-0.123472 -0.18768,-0.05927 -0.4445,-0.05927 -0.22225,0 -0.40005,0.05927 -0.1778,0.05433 -0.30621,0.153105 -0.12348,0.09878 -0.19262,0.232128 -0.0642,0.128411 -0.0642,0.281517 0,0.192616 0.10866,0.321028 0.11359,0.128411 0.29633,0.22225 0.18274,0.09384 0.41487,0.167922 0.23213,0.06914 0.47413,0.153105 0.24695,0.07902 0.47907,0.1778 0.23213,0.09878 0.41487,0.246945 0.18274,0.148167 0.2914,0.365478 0.11359,0.212372 0.11359,0.513644 0,0.345723 -0.12347,0.642056 -0.12347,0.291395 -0.36548,0.508706 -0.24201,0.212372 -0.59267,0.335844 -0.35066,0.123473 -0.80997,0.123473 -0.52353,0 -0.94827,-0.167923 -0.42475,-0.172861 -0.72108,-0.439561 l 0.20743,-0.335844 q 0.0395,-0.06421 0.0938,-0.09878 0.0543,-0.03457 0.13829,-0.03457 0.0889,0 0.18768,0.06914 0.0988,0.06914 0.23707,0.153106 0.14322,0.08396 0.34572,0.153105 0.20249,0.06914 0.50377,0.06914 0.25682,0 0.44943,-0.06421 0.19262,-0.06914 0.32103,-0.182739 0.12841,-0.113594 0.18768,-0.261761 0.0642,-0.148167 0.0642,-0.316089 0,-0.207433 -0.1136,-0.340783 -0.10865,-0.138289 -0.29139,-0.232128 -0.18274,-0.09878 -0.41981,-0.167923 -0.23213,-0.07408 -0.47907,-0.153105 -0.24201,-0.07902 -0.47907,-0.1778 -0.23213,-0.103717 -0.41487,-0.256822 -0.18274,-0.153106 -0.29633,-0.375356 -0.10866,-0.227189 -0.10866,-0.548217 0,-0.286455 0.11853,-0.548217 0.11854,-0.2667 0.34573,-0.464255 0.22719,-0.202495 0.55809,-0.321028 0.33091,-0.118534 0.75565,-0.118534 0.49389,0 0.88406,0.158045 0.39511,0.153106 0.68157,0.424745 z"
       id="text3-2-1"
       inkscape:transform-center-x="-2.1455108"
       inkscape:transform-center-y="-0.45975232"
       transform="rotate(47.102258)"
       aria-label="Updates" />
    <path
       style="font-size:9.87778px;font-family:Lato;-inkscape-font-specification:Lato;stroke:#000000;stroke-width:0.2"
       d="m -24.251258,191.59839 q 0.07902,0 0.138289,0.0642 l 0.380295,0.40992 q -0.434623,0.50377 -1.056923,0.78529 -0.617361,0.28151 -1.496484,0.28151 -0.760589,0 -1.382889,-0.26176 -0.6223,-0.2667 -1.061861,-0.74083 -0.439561,-0.47907 -0.681567,-1.14582 -0.242006,-0.66675 -0.242006,-1.46685 0,-0.8001 0.251884,-1.46685 0.251883,-0.66675 0.706261,-1.14583 0.459317,-0.47907 1.096434,-0.74083 0.637116,-0.2667 1.407583,-0.2667 0.75565,0 1.333501,0.24201 0.57785,0.242 1.017411,0.65687 l -0.316089,0.43956 q -0.02963,0.0494 -0.07902,0.084 -0.04445,0.0296 -0.123472,0.0296 -0.0889,0 -0.217312,-0.0938 -0.128411,-0.0988 -0.335844,-0.21732 -0.207434,-0.11853 -0.518584,-0.21237 -0.31115,-0.0988 -0.765528,-0.0988 -0.548216,0 -1.002594,0.19262 -0.454378,0.18768 -0.785284,0.54822 -0.325966,0.36054 -0.508705,0.87912 -0.182739,0.51858 -0.182739,1.17052 0,0.66181 0.187677,1.18039 0.192617,0.51859 0.518584,0.87912 0.330906,0.3556 0.775406,0.54328 0.449439,0.18768 0.968022,0.18768 0.316089,0 0.567972,-0.0346 0.256823,-0.0395 0.469195,-0.11854 0.217311,-0.079 0.40005,-0.19755 0.187678,-0.12347 0.370417,-0.2914 0.08396,-0.0741 0.167922,-0.0741 z m 4.133844,-0.79022 q -0.607484,0.0198 -1.037167,0.0988 -0.424745,0.0741 -0.696384,0.19755 -0.2667,0.12347 -0.390172,0.2914 -0.118533,0.16792 -0.118533,0.37535 0,0.19756 0.06421,0.34079 0.06421,0.14322 0.172861,0.23706 0.113595,0.0889 0.261761,0.13335 0.153106,0.0395 0.325967,0.0395 0.232128,0 0.424745,-0.0445 0.192616,-0.0494 0.360539,-0.13829 0.172861,-0.0889 0.325966,-0.21237 0.158045,-0.12347 0.306212,-0.28151 z m -2.839862,-2.0447 q 0.414867,-0.40005 0.893939,-0.59761 0.479072,-0.19755 1.061861,-0.19755 0.419806,0 0.745773,0.13829 0.325966,0.13829 0.548216,0.38523 0.22225,0.24694 0.335845,0.59761 0.113594,0.35066 0.113594,0.77046 v 3.2004 h -0.390172 q -0.128411,0 -0.197555,-0.0395 -0.06914,-0.0445 -0.108656,-0.16792 l -0.09878,-0.47413 q -0.197555,0.18273 -0.385233,0.32596 -0.187678,0.13829 -0.395111,0.23707 -0.207434,0.0938 -0.444501,0.14323 -0.232127,0.0543 -0.518583,0.0543 -0.291395,0 -0.548217,-0.079 -0.256822,-0.084 -0.449439,-0.24694 -0.187678,-0.16299 -0.301272,-0.40993 -0.108656,-0.25188 -0.108656,-0.59267 0,-0.29633 0.162984,-0.56797 0.162983,-0.27658 0.528461,-0.48895 0.365478,-0.21237 0.953206,-0.34572 0.587728,-0.13829 1.442156,-0.15805 v -0.39017 q 0,-0.58279 -0.251884,-0.87912 -0.251883,-0.30127 -0.735894,-0.30127 -0.325967,0 -0.548217,0.084 -0.217311,0.079 -0.380295,0.18274 -0.158044,0.0988 -0.276578,0.18274 -0.113594,0.079 -0.227189,0.079 -0.0889,0 -0.153105,-0.0444 -0.06421,-0.0494 -0.108656,-0.11853 z m 5.946421,-2.97815 v 7.27498 h -0.879123 v -7.27498 z m 4.904318,3.16089 q -0.03951,0.0543 -0.07902,0.084 -0.03951,0.0296 -0.108656,0.0296 -0.07408,0 -0.162983,-0.0593 -0.0889,-0.0642 -0.22225,-0.13829 -0.128411,-0.0741 -0.321028,-0.13335 -0.187678,-0.0642 -0.464256,-0.0642 -0.370416,0 -0.651933,0.13335 -0.281517,0.12841 -0.474133,0.37536 -0.187678,0.24694 -0.286456,0.5976 -0.09384,0.35066 -0.09384,0.78529 0,0.45437 0.103717,0.80997 0.103716,0.35066 0.291394,0.59267 0.192617,0.23707 0.459317,0.36548 0.271639,0.12347 0.607483,0.12347 0.321028,0 0.528462,-0.0741 0.207433,-0.079 0.340783,-0.17286 0.138289,-0.0938 0.227189,-0.16793 0.09384,-0.079 0.182739,-0.079 0.108656,0 0.167922,0.084 l 0.246945,0.32103 q -0.162984,0.20249 -0.370417,0.34572 -0.207433,0.14323 -0.449439,0.24201 -0.237067,0.0938 -0.498828,0.13829 -0.261761,0.0444 -0.5334,0.0444 -0.469195,0 -0.874184,-0.17286 -0.40005,-0.17287 -0.696383,-0.49883 -0.296333,-0.33091 -0.464256,-0.80998 -0.167922,-0.47907 -0.167922,-1.09149 0,-0.5581 0.153106,-1.03223 0.158044,-0.47414 0.454378,-0.81492 0.301272,-0.34572 0.735894,-0.53834 0.439561,-0.19262 1.007534,-0.19262 0.528461,0 0.928511,0.17287 0.404989,0.16792 0.716139,0.47907 z m 5.3488262,-0.889 v 5.00309 h -0.5235223 q -0.1876778,0 -0.2370667,-0.18274 l -0.069144,-0.53834 q -0.3259667,0.36054 -0.7309557,0.58279 -0.404989,0.21731 -0.9285113,0.21731 -0.4099279,0 -0.7260169,-0.13335 -0.3111498,-0.13828 -0.5235218,-0.38523 -0.212373,-0.24694 -0.321028,-0.5976 -0.103717,-0.35067 -0.103717,-0.77541 v -3.19052 h 0.879122 v 3.19052 q 0,0.56797 0.2568227,0.87912 0.2617611,0.31115 0.7951612,0.31115 0.3901724,0 0.7260169,-0.18274 0.3407834,-0.18767 0.627239,-0.51364 v -3.68441 z m 2.3015326,-2.27189 v 7.27498 h -0.8791224 v -7.27498 z m 4.13385062,5.02285 q -0.60748347,0.0198 -1.03716692,0.0988 -0.4247445,0.0741 -0.6963835,0.19755 -0.2667,0.12347 -0.3901723,0.2914 -0.1185333,0.16792 -0.1185333,0.37535 0,0.19756 0.064206,0.34079 0.064206,0.14322 0.1728612,0.23706 0.1135945,0.0889 0.2617612,0.13335 0.1531055,0.0395 0.3259667,0.0395 0.2321278,0 0.4247445,-0.0445 0.1926167,-0.0494 0.360539,-0.13829 0.17286115,-0.0889 0.32596674,-0.21237 0.15804448,-0.12347 0.30621118,-0.28151 z m -2.83986172,-2.0447 q 0.4148667,-0.40005 0.8939391,-0.59761 0.4790723,-0.19755 1.0618613,-0.19755 0.41980566,0 0.7457724,0.13829 0.32596674,0.13829 0.54821679,0.38523 0.22225005,0.24694 0.33584452,0.59761 0.11359447,0.35066 0.11359447,0.77046 v 3.2004 H 0.14686697 q -0.12841114,0 -0.1975556,-0.0395 -0.06914446,-0.0445 -0.10865558,-0.16792 l -0.0987778,-0.47413 q -0.1975556,0.18273 -0.38523342,0.32596 -0.18767782,0.13829 -0.39511117,0.23707 -0.2074334,0.0938 -0.4445001,0.14323 -0.2321279,0.0543 -0.5185835,0.0543 -0.2913945,0 -0.5482168,-0.079 -0.2568222,-0.084 -0.4494389,-0.24694 -0.1876779,-0.16299 -0.3012723,-0.40993 -0.1086556,-0.25188 -0.1086556,-0.59267 0,-0.29633 0.1629834,-0.56797 0.1629833,-0.27658 0.5284612,-0.48895 0.3654778,-0.21237 0.9532057,-0.34572 0.587728,-0.13829 1.44215592,-0.15805 v -0.39017 q 0,-0.58279 -0.25188339,-0.87912 -0.25188339,-0.30127 -0.73589463,-0.30127 -0.3259667,0 -0.5482168,0.084 -0.2173111,0.079 -0.3802945,0.18274 -0.1580445,0.0988 -0.2765778,0.18274 -0.1135945,0.079 -0.227189,0.079 -0.0889,0 -0.1531056,-0.0444 -0.064205,-0.0494 -0.1086555,-0.11853 z m 6.5094529,4.37585 q -0.5926668,0 -0.9136946,-0.3309 Q 2.11748,192.47751 2.11748,191.85521 V 188.7931 H 1.5149354 q -0.079022,0 -0.13335,-0.0445 -0.054328,-0.0494 -0.054328,-0.14816 v -0.35067 l 0.8198557,-0.10371 0.2024945,-1.54588 q 0.014817,-0.0741 0.064206,-0.11853 0.054328,-0.0494 0.1382889,-0.0494 h 0.4445001 v 1.72367 h 1.4470948 v 0.63712 H 2.9966024 v 3.00285 q 0,0.31609 0.1531056,0.46919 0.1531056,0.15311 0.3951112,0.15311 0.1382889,0 0.2370667,-0.0346 0.1037167,-0.0395 0.1778001,-0.084 0.074083,-0.0445 0.1234722,-0.079 0.054328,-0.0395 0.093839,-0.0395 0.069144,0 0.1234723,0.084 l 0.2568222,0.41981 q -0.2271889,0.21237 -0.5482167,0.33584 -0.3210279,0.11853 -0.6618113,0.11853 z m 5.3290521,-3.12631 q 0,-0.30621 -0.0889,-0.5581 -0.083961,-0.25682 -0.2518834,-0.43956 -0.1629834,-0.18768 -0.4000501,-0.28645 -0.2370667,-0.10372 -0.538339,-0.10372 -0.6321779,0 -1.0025947,0.37042 -0.3654778,0.36547 -0.4543778,1.01741 z m 0.7112002,2.34597 q -0.1629834,0.19756 -0.3901723,0.34572 -0.227189,0.14323 -0.4889501,0.23707 -0.2568223,0.0938 -0.5334002,0.13829 -0.2765778,0.0494 -0.5482167,0.0494 -0.5185835,0 -0.9581447,-0.17286 -0.4346223,-0.1778 -0.7556502,-0.51365 -0.3160889,-0.34078 -0.493889,-0.83961 -0.1778,-0.49883 -0.1778,-1.14582 0,-0.52352 0.1580445,-0.9779 0.1629833,-0.45438 0.4642556,-0.78529 0.3012723,-0.33584 0.7358946,-0.52352 0.4346224,-0.19262 0.9779003,-0.19262 0.4494389,0 0.8297335,0.15311 0.3852334,0.14817 0.6618112,0.43462 0.2815168,0.28152 0.4395612,0.70133 0.1580445,0.41486 0.1580445,0.94826 0,0.20744 -0.04445,0.27658 -0.04445,0.0691 -0.1679223,0.0691 H 5.9105373 q 0.014817,0.47414 0.1284112,0.8248 0.1185333,0.35066 0.3259667,0.58773 0.2074334,0.23212 0.493889,0.35066 0.2864556,0.11359 0.6420557,0.11359 0.3309056,0 0.5679723,-0.0741 0.2420057,-0.079 0.4148668,-0.16792 0.1728612,-0.0889 0.2864556,-0.16299 0.1185334,-0.079 0.2024945,-0.079 0.1086556,0 0.1679223,0.084 z M 13.457159,188.882 q -0.05927,0.10866 -0.182739,0.10866 -0.07408,0 -0.167922,-0.0543 -0.09384,-0.0543 -0.232128,-0.11853 -0.13335,-0.0692 -0.321028,-0.12348 -0.187678,-0.0593 -0.4445,-0.0593 -0.22225,0 -0.40005,0.0593 -0.1778,0.0543 -0.306211,0.15311 -0.123473,0.0988 -0.192617,0.23213 -0.06421,0.12841 -0.06421,0.28151 0,0.19262 0.108656,0.32103 0.113594,0.12841 0.296333,0.22225 0.182739,0.0938 0.414867,0.16792 0.232128,0.0692 0.474134,0.15311 0.246944,0.079 0.479072,0.1778 0.232128,0.0988 0.414867,0.24694 0.182739,0.14817 0.291394,0.36548 0.113595,0.21237 0.113595,0.51365 0,0.34572 -0.123473,0.64205 -0.123472,0.2914 -0.365477,0.50871 -0.242006,0.21237 -0.592667,0.33584 -0.350661,0.12347 -0.809978,0.12347 -0.523523,0 -0.948267,-0.16792 -0.424745,-0.17286 -0.721078,-0.43956 l 0.207433,-0.33584 q 0.03951,-0.0642 0.09384,-0.0988 0.05433,-0.0346 0.138289,-0.0346 0.0889,0 0.187678,0.0691 0.09878,0.0692 0.237067,0.15311 0.143228,0.084 0.345722,0.1531 0.202495,0.0692 0.503767,0.0692 0.256822,0 0.449439,-0.0642 0.192617,-0.0691 0.321028,-0.18274 0.128411,-0.11359 0.187677,-0.26176 0.06421,-0.14817 0.06421,-0.31609 0,-0.20743 -0.113594,-0.34078 -0.108656,-0.13829 -0.291395,-0.23213 -0.182739,-0.0988 -0.419806,-0.16792 -0.232127,-0.0741 -0.479072,-0.15311 -0.242006,-0.079 -0.479072,-0.1778 -0.232128,-0.10371 -0.414867,-0.25682 -0.182739,-0.1531 -0.296333,-0.37535 -0.108656,-0.22719 -0.108656,-0.54822 0,-0.28646 0.118533,-0.54822 0.118534,-0.2667 0.345723,-0.46425 0.227189,-0.2025 0.558094,-0.32103 0.330906,-0.11854 0.75565,-0.11854 0.493889,0 0.884062,0.15805 0.395111,0.15311 0.681567,0.42474 z"
       id="text3-2-8"
       transform="rotate(-54.198434)"
       aria-label="Calculates" />
    <path
       style="font-size:9.87778px;font-family:Lato;-inkscape-font-specification:Lato;stroke:#000000;stroke-width:0.2"
       d="m 141.7452,65.954996 q 0,0.795162 -0.25188,1.461912 -0.25189,0.661811 -0.7112,1.140883 -0.45932,0.479073 -1.10632,0.745773 -0.64205,0.261761 -1.4224,0.261761 -0.78034,0 -1.4224,-0.261761 -0.64205,-0.2667 -1.10137,-0.745773 -0.45932,-0.479072 -0.7112,-1.140883 -0.25188,-0.66675 -0.25188,-1.461912 0,-0.795161 0.25188,-1.456972 0.25188,-0.66675 0.7112,-1.145823 0.45932,-0.484011 1.10137,-0.750711 0.64206,-0.2667 1.4224,-0.2667 0.78035,0 1.4224,0.2667 0.647,0.2667 1.10632,0.750711 0.45931,0.479073 0.7112,1.145823 0.25188,0.661811 0.25188,1.456972 z m -0.98284,0 q 0,-0.651933 -0.1778,-1.170517 -0.1778,-0.518583 -0.50377,-0.874183 -0.32596,-0.360539 -0.79022,-0.553156 -0.46425,-0.192617 -1.03717,-0.192617 -0.56797,0 -1.03222,0.192617 -0.46426,0.192617 -0.79517,0.553156 -0.32596,0.3556 -0.50376,0.874183 -0.1778,0.518584 -0.1778,1.170517 0,0.651934 0.1778,1.170517 0.1778,0.513645 0.50376,0.874184 0.33091,0.3556 0.79517,0.548216 0.46425,0.187678 1.03222,0.187678 0.57292,0 1.03717,-0.187678 0.46426,-0.192616 0.79022,-0.548216 0.32597,-0.360539 0.50377,-0.874184 0.1778,-0.518583 0.1778,-1.170517 z m 2.9337,2.331156 q 0.24201,0.325967 0.52847,0.459317 0.29139,0.13335 0.63711,0.13335 0.70626,0 1.08162,-0.498828 0.37536,-0.498828 0.37536,-1.486606 0,-0.918633 -0.33585,-1.348317 -0.33091,-0.434622 -0.94827,-0.434622 -0.42968,0 -0.75071,0.197556 -0.31609,0.197555 -0.58773,0.558094 z m 0,-3.076928 q 0.31609,-0.365478 0.7112,-0.582789 0.40005,-0.217311 0.91864,-0.217311 0.43956,0 0.79022,0.167922 0.3556,0.167922 0.60255,0.48895 0.24694,0.316089 0.37535,0.770467 0.13335,0.454378 0.13335,1.02235 0,0.607484 -0.14817,1.106311 -0.14816,0.498828 -0.42968,0.854428 -0.27658,0.350662 -0.67663,0.548217 -0.40005,0.192617 -0.89888,0.192617 -0.49388,0 -0.83467,-0.182739 -0.33584,-0.187678 -0.58773,-0.528461 l -0.0445,0.454378 q -0.0395,0.187677 -0.22718,0.187677 H 142.812 v -7.274984 h 0.88406 z m 5.57601,-0.721078 v 5.373512 q 0,0.301272 -0.079,0.558095 -0.079,0.261761 -0.25188,0.454378 -0.17286,0.192616 -0.4445,0.301272 -0.2667,0.113594 -0.64206,0.113594 -0.15804,0 -0.29139,-0.02469 -0.13335,-0.02469 -0.2667,-0.07408 l 0.0346,-0.474134 q 0.01,-0.04445 0.0346,-0.06914 0.0198,-0.01976 0.0593,-0.02469 0.0395,-0.0049 0.10372,-0.0049 0.0593,0.0049 0.1531,0.0049 0.38524,0 0.54822,-0.182739 0.16298,-0.1778 0.16298,-0.57785 v -5.373512 z m 0.18273,-1.570567 q 0,0.128411 -0.0543,0.242006 -0.0494,0.108655 -0.13829,0.197555 -0.084,0.08396 -0.19756,0.13335 -0.11359,0.04939 -0.242,0.04939 -0.12841,0 -0.24201,-0.04939 -0.10865,-0.04939 -0.19262,-0.13335 -0.084,-0.0889 -0.13335,-0.197555 -0.0494,-0.113595 -0.0494,-0.242006 0,-0.128411 0.0494,-0.242006 0.0494,-0.118533 0.13335,-0.202494 0.084,-0.0889 0.19262,-0.138289 0.1136,-0.04939 0.24201,-0.04939 0.12841,0 0.242,0.04939 0.1136,0.04939 0.19756,0.138289 0.0889,0.08396 0.13829,0.202494 0.0543,0.113595 0.0543,0.242006 z m 4.60799,3.526367 q 0,-0.306211 -0.0889,-0.558094 -0.084,-0.256823 -0.25189,-0.439561 -0.16298,-0.187678 -0.40005,-0.286456 -0.23706,-0.103717 -0.53834,-0.103717 -0.63217,0 -1.00259,0.370417 -0.36548,0.365478 -0.45438,1.017411 z m 0.7112,2.345973 q -0.16299,0.197556 -0.39018,0.345722 -0.22718,0.143228 -0.48895,0.237067 -0.25682,0.09384 -0.5334,0.138289 -0.27657,0.04939 -0.54821,0.04939 -0.51859,0 -0.95815,-0.172861 -0.43462,-0.1778 -0.75565,-0.513645 -0.31609,-0.340783 -0.49389,-0.839611 -0.1778,-0.498828 -0.1778,-1.145823 0,-0.523522 0.15805,-0.9779 0.16298,-0.454378 0.46425,-0.785283 0.30128,-0.335845 0.7359,-0.523523 0.43462,-0.192616 0.9779,-0.192616 0.44944,0 0.82973,0.153105 0.38524,0.148167 0.66181,0.434623 0.28152,0.281516 0.43956,0.701322 0.15805,0.414867 0.15805,0.948267 0,0.207433 -0.0445,0.276578 -0.0445,0.06914 -0.16792,0.06914 h -3.34363 q 0.0148,0.474134 0.12841,0.824795 0.11853,0.350661 0.32597,0.587728 0.20743,0.232127 0.49388,0.350661 0.28646,0.113594 0.64206,0.113594 0.33091,0 0.56797,-0.07408 0.24201,-0.07902 0.41487,-0.167922 0.17286,-0.0889 0.28646,-0.162984 0.11853,-0.07902 0.20249,-0.07902 0.10866,0 0.16792,0.08396 z m 4.63761,-3.412773 q -0.0395,0.05433 -0.079,0.08396 -0.0395,0.02963 -0.10865,0.02963 -0.0741,0 -0.16299,-0.05927 -0.0889,-0.06421 -0.22225,-0.138289 -0.12841,-0.07408 -0.32103,-0.13335 -0.18767,-0.06421 -0.46425,-0.06421 -0.37042,0 -0.65193,0.13335 -0.28152,0.128412 -0.47414,0.375356 -0.18768,0.246945 -0.28645,0.597606 -0.0938,0.350661 -0.0938,0.785283 0,0.454378 0.10371,0.809978 0.10372,0.350661 0.2914,0.592667 0.19262,0.237067 0.45932,0.365478 0.27163,0.123472 0.60748,0.123472 0.32103,0 0.52846,-0.07408 0.20743,-0.07902 0.34078,-0.172861 0.13829,-0.09384 0.22719,-0.167923 0.0938,-0.07902 0.18274,-0.07902 0.10866,0 0.16792,0.08396 l 0.24695,0.321028 q -0.16298,0.202495 -0.37042,0.345722 -0.20743,0.143228 -0.44944,0.242006 -0.23706,0.09384 -0.49883,0.138289 -0.26176,0.04445 -0.5334,0.04445 -0.46919,0 -0.87418,-0.172861 -0.40005,-0.172861 -0.69638,-0.498828 -0.29634,-0.330906 -0.46426,-0.809978 -0.16792,-0.479072 -0.16792,-1.091495 0,-0.558094 0.15311,-1.032228 0.15804,-0.474133 0.45437,-0.814917 0.30128,-0.345722 0.7359,-0.538339 0.43956,-0.192616 1.00753,-0.192616 0.52846,0 0.92851,0.172861 0.40499,0.167922 0.71614,0.479072 z m 5.87729,4.114095 h -0.87912 v -4.2672 h -2.5781 v 3.002845 q 0,0.316089 0.1531,0.469194 0.15311,0.153106 0.39512,0.153106 0.13828,0 0.23706,-0.03457 0.10372,-0.03951 0.1778,-0.08396 0.0741,-0.04445 0.12347,-0.07902 0.0543,-0.03951 0.0938,-0.03951 0.0692,0 0.12348,0.08396 l 0.25682,0.419806 q -0.22719,0.212372 -0.54822,0.335844 -0.32103,0.118534 -0.66181,0.118534 -0.59267,0 -0.9137,-0.330906 -0.31608,-0.330906 -0.31608,-0.953206 V 65.224041 H 160.35 q -0.079,0 -0.13335,-0.04445 -0.0543,-0.04939 -0.0543,-0.148167 v -0.350661 l 0.81986,-0.108656 0.20249,-1.540934 q 0.0148,-0.07408 0.0642,-0.118533 0.0543,-0.04939 0.13829,-0.04939 h 0.4445 v 1.723673 h 3.45722 z m 0.21731,-6.608234 q 0,0.128411 -0.0543,0.242005 -0.0494,0.108656 -0.13828,0.192617 -0.084,0.08396 -0.19756,0.13335 -0.11359,0.04939 -0.24201,0.04939 -0.12841,0 -0.242,-0.04939 -0.10866,-0.04939 -0.19262,-0.13335 -0.084,-0.08396 -0.13335,-0.192617 -0.0494,-0.113594 -0.0494,-0.242005 0,-0.128411 0.0494,-0.242006 0.0494,-0.118533 0.13335,-0.202494 0.084,-0.0889 0.19262,-0.138289 0.11359,-0.04939 0.242,-0.04939 0.12842,0 0.24201,0.04939 0.11359,0.04939 0.19756,0.138289 0.0889,0.08396 0.13828,0.202494 0.0543,0.113595 0.0543,0.242006 z m 5.5118,1.605139 -2.03977,5.003095 h -0.79022 l -2.03976,-5.003095 h 0.71614 q 0.10866,0 0.1778,0.05433 0.0691,0.05433 0.0938,0.128411 l 1.26929,3.220156 q 0.0593,0.182739 0.10372,0.3556 0.0445,0.172861 0.084,0.345722 0.0395,-0.172861 0.084,-0.345722 0.0444,-0.172861 0.10866,-0.3556 l 1.28411,-3.220156 q 0.0296,-0.07902 0.0988,-0.128411 0.0691,-0.05433 0.16298,-0.05433 z m 4.02026,1.9558 q 0,-0.306211 -0.0889,-0.558094 -0.084,-0.256823 -0.25188,-0.439561 -0.16299,-0.187678 -0.40005,-0.286456 -0.23707,-0.103717 -0.53834,-0.103717 -0.63218,0 -1.0026,0.370417 -0.36548,0.365478 -0.45438,1.017411 z m 0.7112,2.345973 q -0.16298,0.197556 -0.39017,0.345722 -0.22719,0.143228 -0.48895,0.237067 -0.25682,0.09384 -0.5334,0.138289 -0.27658,0.04939 -0.54822,0.04939 -0.51858,0 -0.95814,-0.172861 -0.43463,-0.1778 -0.75565,-0.513645 -0.31609,-0.340783 -0.49389,-0.839611 -0.1778,-0.498828 -0.1778,-1.145823 0,-0.523522 0.15804,-0.9779 0.16298,-0.454378 0.46426,-0.785283 0.30127,-0.335845 0.73589,-0.523523 0.43462,-0.192616 0.9779,-0.192616 0.44944,0 0.82974,0.153105 0.38523,0.148167 0.66181,0.434623 0.28151,0.281516 0.43956,0.701322 0.15804,0.414867 0.15804,0.948267 0,0.207433 -0.0445,0.276578 -0.0445,0.06914 -0.16792,0.06914 h -3.34363 q 0.0148,0.474134 0.12841,0.824795 0.11854,0.350661 0.32597,0.587728 0.20743,0.232127 0.49389,0.350661 0.28645,0.113594 0.64205,0.113594 0.33091,0 0.56798,-0.07408 0.242,-0.07902 0.41486,-0.167922 0.17286,-0.0889 0.28646,-0.162984 0.11853,-0.07902 0.20249,-0.07902 0.10866,0 0.16793,0.08396 z m 4.06964,-3.476978 q -0.0593,0.108655 -0.18274,0.108655 -0.0741,0 -0.16792,-0.05433 -0.0938,-0.05433 -0.23213,-0.118533 -0.13335,-0.06914 -0.32102,-0.123472 -0.18768,-0.05927 -0.4445,-0.05927 -0.22225,0 -0.40005,0.05927 -0.1778,0.05433 -0.30622,0.153105 -0.12347,0.09878 -0.19261,0.232128 -0.0642,0.128411 -0.0642,0.281517 0,0.192617 0.10866,0.321028 0.11359,0.128411 0.29633,0.22225 0.18274,0.09384 0.41487,0.167922 0.23213,0.06914 0.47413,0.153106 0.24695,0.07902 0.47907,0.1778 0.23213,0.09878 0.41487,0.246944 0.18274,0.148167 0.2914,0.365478 0.11359,0.212372 0.11359,0.513645 0,0.345722 -0.12347,0.642055 -0.12347,0.291395 -0.36548,0.508706 -0.24201,0.212372 -0.59267,0.335844 -0.35066,0.123473 -0.80997,0.123473 -0.52353,0 -0.94827,-0.167923 -0.42475,-0.172861 -0.72108,-0.439561 l 0.20743,-0.335844 q 0.0395,-0.06421 0.0938,-0.09878 0.0543,-0.03457 0.13829,-0.03457 0.0889,0 0.18768,0.06914 0.0988,0.06914 0.23707,0.153106 0.14322,0.08396 0.34572,0.153105 0.20249,0.06914 0.50377,0.06914 0.25682,0 0.44943,-0.06421 0.19262,-0.06914 0.32103,-0.182739 0.12841,-0.113594 0.18768,-0.261761 0.0642,-0.148167 0.0642,-0.316089 0,-0.207433 -0.1136,-0.340783 -0.10865,-0.138289 -0.29139,-0.232128 -0.18274,-0.09878 -0.41981,-0.167922 -0.23213,-0.07408 -0.47907,-0.153106 -0.24201,-0.07902 -0.47907,-0.1778 -0.23213,-0.103717 -0.41487,-0.256822 -0.18274,-0.153106 -0.29633,-0.375356 -0.10866,-0.227189 -0.10866,-0.548217 0,-0.286455 0.11853,-0.548216 0.11854,-0.266701 0.34573,-0.464256 0.22718,-0.202495 0.55809,-0.321028 0.33091,-0.118533 0.75565,-0.118533 0.49389,0 0.88406,0.158044 0.39511,0.153106 0.68157,0.424745 z"
       id="text3-7"
       aria-label="Objectives" />
    <path
       style="font-size:9.87778px;font-family:Lato;-inkscape-font-specification:Lato;stroke:#000000;stroke-width:0.2"
       d="m 87.525083,146.14355 q 0,0.79516 -0.251883,1.46191 -0.251883,0.66181 -0.7112,1.14088 -0.459317,0.47908 -1.106311,0.74578 -0.642056,0.26176 -1.422401,0.26176 -0.780344,0 -1.4224,-0.26176 -0.642056,-0.2667 -1.101373,-0.74578 -0.459316,-0.47907 -0.7112,-1.14088 -0.251883,-0.66675 -0.251883,-1.46191 0,-0.79516 0.251883,-1.45697 0.251884,-0.66675 0.7112,-1.14583 0.459317,-0.48401 1.101373,-0.75071 0.642056,-0.2667 1.4224,-0.2667 0.780345,0 1.422401,0.2667 0.646994,0.2667 1.106311,0.75071 0.459317,0.47908 0.7112,1.14583 0.251883,0.66181 0.251883,1.45697 z m -0.982839,0 q 0,-0.65193 -0.1778,-1.17052 -0.1778,-0.51858 -0.503767,-0.87418 -0.325966,-0.36054 -0.790222,-0.55316 -0.464256,-0.19261 -1.037167,-0.19261 -0.567972,0 -1.032228,0.19261 -0.464255,0.19262 -0.795161,0.55316 -0.325967,0.3556 -0.503767,0.87418 -0.1778,0.51859 -0.1778,1.17052 0,0.65193 0.1778,1.17052 0.1778,0.51364 0.503767,0.87418 0.330906,0.3556 0.795161,0.54822 0.464256,0.18767 1.032228,0.18767 0.572911,0 1.037167,-0.18767 0.464256,-0.19262 0.790222,-0.54822 0.325967,-0.36054 0.503767,-0.87418 0.1778,-0.51859 0.1778,-1.17052 z m 2.928769,2.33116 q 0.242005,0.32596 0.528461,0.45931 0.286455,0.13335 0.642055,0.13335 0.701323,0 1.076679,-0.49883 0.375355,-0.49882 0.375355,-1.4224 0,-0.48895 -0.0889,-0.83961 -0.08396,-0.35066 -0.246944,-0.57291 -0.162984,-0.22719 -0.40005,-0.3309 -0.237067,-0.10372 -0.538339,-0.10372 -0.429684,0 -0.755651,0.19755 -0.321027,0.19756 -0.592666,0.5581 z m -0.04445,-3.02261 q 0.316089,-0.39017 0.730955,-0.62723 0.414867,-0.23707 0.948267,-0.23707 0.434622,0 0.785284,0.16792 0.350661,0.16298 0.597605,0.48895 0.246945,0.32103 0.380295,0.8001 0.13335,0.47907 0.13335,1.10137 0,0.55316 -0.148167,1.03223 -0.148166,0.47414 -0.429683,0.8248 -0.276578,0.34572 -0.681567,0.54821 -0.40005,0.19756 -0.903817,0.19756 -0.459317,0 -0.790222,-0.15311 -0.325967,-0.15804 -0.57785,-0.43462 v 2.21262 h -0.884062 v -6.69713 h 0.528461 q 0.187678,0 0.232128,0.18274 z m 9.275224,4.22769 h -0.879122 v -4.2672 h -2.578101 v 3.00285 q 0,0.31609 0.153106,0.46919 0.153106,0.15311 0.395111,0.15311 0.138289,0 0.237067,-0.0346 0.103717,-0.0395 0.1778,-0.084 0.07408,-0.0444 0.123472,-0.079 0.05433,-0.0395 0.09384,-0.0395 0.06914,0 0.123472,0.084 l 0.256823,0.41981 q -0.227189,0.21237 -0.548217,0.33584 -0.321028,0.11854 -0.661811,0.11854 -0.592667,0 -0.913695,-0.33091 -0.316089,-0.3309 -0.316089,-0.9532 v -3.06212 h -0.602545 q -0.07902,0 -0.13335,-0.0444 -0.05433,-0.0494 -0.05433,-0.14816 v -0.35066 l 0.819855,-0.10866 0.202495,-1.54093 q 0.01482,-0.0741 0.06421,-0.11854 0.05433,-0.0494 0.138289,-0.0494 h 0.4445 v 1.72368 h 3.457223 z m 0.217312,-6.60823 q 0,0.12841 -0.05433,0.24201 -0.04939,0.10865 -0.138289,0.19261 -0.08396,0.084 -0.197556,0.13335 -0.113594,0.0494 -0.242005,0.0494 -0.128412,0 -0.242006,-0.0494 -0.108656,-0.0494 -0.192617,-0.13335 -0.08396,-0.084 -0.13335,-0.19261 -0.04939,-0.1136 -0.04939,-0.24201 0,-0.12841 0.04939,-0.24201 0.04939,-0.11853 0.13335,-0.20249 0.08396,-0.0889 0.192617,-0.13829 0.113594,-0.0494 0.242006,-0.0494 0.128411,0 0.242005,0.0494 0.113595,0.0494 0.197556,0.13829 0.0889,0.084 0.138289,0.20249 0.05433,0.1136 0.05433,0.24201 z m 1.224841,6.60823 v -5.00309 h 0.52846 q 0.18767,0 0.23212,0.18274 l 0.0642,0.51364 q 0.27658,-0.34078 0.6223,-0.55809 0.34572,-0.21731 0.8001,-0.21731 0.50377,0 0.81492,0.28151 0.31609,0.28152 0.45437,0.76059 0.10866,-0.27164 0.27658,-0.46919 0.17286,-0.19756 0.38524,-0.32597 0.21237,-0.12841 0.44944,-0.18768 0.242,-0.0593 0.48895,-0.0593 0.39511,0 0.70132,0.12841 0.31115,0.12347 0.52352,0.36548 0.21731,0.242 0.33091,0.5976 0.11359,0.35066 0.11359,0.80504 v 3.18558 h -0.88406 v -3.18558 q 0,-0.58773 -0.25682,-0.889 -0.25683,-0.30621 -0.74084,-0.30621 -0.21731,0 -0.41486,0.079 -0.19262,0.0741 -0.34079,0.22225 -0.14816,0.14817 -0.23706,0.37536 -0.084,0.22225 -0.084,0.51858 v 3.18558 h -0.88406 v -3.18558 q 0,-0.60254 -0.242,-0.89888 -0.24201,-0.29633 -0.70626,-0.29633 -0.32597,0 -0.60255,0.1778 -0.27658,0.17286 -0.5087,0.47413 v 3.72886 z m 9.05298,-5.00309 v 5.00309 h -0.87912 v -5.00309 z m 0.18768,-1.57057 q 0,0.12841 -0.0543,0.24201 -0.0494,0.10865 -0.13828,0.19755 -0.084,0.084 -0.2025,0.13335 -0.11359,0.0494 -0.24201,0.0494 -0.12841,0 -0.242,-0.0494 -0.10866,-0.0494 -0.19262,-0.13335 -0.084,-0.0889 -0.13335,-0.19755 -0.0494,-0.1136 -0.0494,-0.24201 0,-0.12841 0.0494,-0.242 0.0494,-0.11854 0.13335,-0.2025 0.084,-0.0889 0.19262,-0.13829 0.11359,-0.0494 0.242,-0.0494 0.12842,0 0.24201,0.0494 0.11853,0.0494 0.2025,0.13829 0.0889,0.084 0.13828,0.2025 0.0543,0.11359 0.0543,0.242 z m 4.70676,1.94592 q 0,0.0938 -0.0346,0.18274 -0.0296,0.0889 -0.084,0.15311 l -2.71145,3.60539 h 2.73614 v 0.6865 h -3.76837 v -0.36547 q 0,-0.0642 0.0296,-0.14817 0.0296,-0.0889 0.0889,-0.16792 l 2.72627,-3.63009 h -2.6917 v -0.69144 h 3.70911 z m 4.26719,1.58045 q 0,-0.30621 -0.0889,-0.5581 -0.084,-0.25682 -0.25188,-0.43956 -0.16298,-0.18767 -0.40005,-0.28645 -0.23707,-0.10372 -0.53834,-0.10372 -0.63218,0 -1.00259,0.37042 -0.36548,0.36548 -0.45438,1.01741 z m 0.7112,2.34597 q -0.16298,0.19756 -0.39017,0.34572 -0.22719,0.14323 -0.48895,0.23707 -0.25682,0.0938 -0.5334,0.13829 -0.27658,0.0494 -0.54822,0.0494 -0.51858,0 -0.95814,-0.17286 -0.43462,-0.1778 -0.75565,-0.51365 -0.31609,-0.34078 -0.49389,-0.83961 -0.1778,-0.49883 -0.1778,-1.14582 0,-0.52352 0.15804,-0.9779 0.16299,-0.45438 0.46426,-0.78528 0.30127,-0.33585 0.7359,-0.52353 0.43462,-0.19261 0.9779,-0.19261 0.44943,0 0.82973,0.1531 0.38523,0.14817 0.66181,0.43462 0.28152,0.28152 0.43956,0.70133 0.15805,0.41486 0.15805,0.94826 0,0.20744 -0.0444,0.27658 -0.0444,0.0692 -0.16793,0.0692 h -3.34363 q 0.0148,0.47413 0.12842,0.82479 0.11853,0.35066 0.32596,0.58773 0.20744,0.23213 0.49389,0.35066 0.28646,0.11359 0.64206,0.11359 0.3309,0 0.56797,-0.0741 0.24201,-0.079 0.41487,-0.16792 0.17286,-0.0889 0.28645,-0.16298 0.11854,-0.079 0.2025,-0.079 0.10865,0 0.16792,0.084 z m 1.99037,-3.29918 q 0.23707,-0.51364 0.58279,-0.8001 0.34573,-0.29139 0.84455,-0.29139 0.15805,0 0.30128,0.0346 0.14816,0.0346 0.26176,0.10866 l -0.0642,0.65687 q -0.0296,0.12347 -0.14817,0.12347 -0.0691,0 -0.20249,-0.0296 -0.13335,-0.0296 -0.30127,-0.0296 -0.23707,0 -0.42475,0.0692 -0.18274,0.0691 -0.3309,0.20743 -0.14323,0.13335 -0.26176,0.33585 -0.1136,0.19755 -0.20744,0.45437 v 3.16089 h -0.88406 v -5.00309 h 0.50377 q 0.14323,0 0.19755,0.0543 0.0543,0.0543 0.0741,0.18767 z"
       id="text3-3"
       aria-label="Optimizer" />
    <path
       d="m 80.543516,54.239298 q 0,0.79516 -0.251883,1.46191 -0.251883,0.66181 -0.711199,1.140882 -0.459316,0.479072 -1.10631,0.745772 -0.642056,0.261761 -1.422399,0.261761 -0.780344,0 -1.422399,-0.261761 -0.642055,-0.2667 -1.101372,-0.745772 -0.459316,-0.479072 -0.711199,-1.140882 -0.251883,-0.66675 -0.251883,-1.46191 0,-0.795161 0.251883,-1.456972 0.251883,-0.666749 0.711199,-1.145821 0.459317,-0.484011 1.101372,-0.75071 0.642055,-0.2667 1.422399,-0.2667 0.780343,0 1.422399,0.2667 0.646994,0.266699 1.10631,0.75071 0.459316,0.479072 0.711199,1.145821 0.251883,0.661811 0.251883,1.456972 z m -0.982838,0 q 0,-0.651933 -0.1778,-1.170516 -0.177799,-0.518583 -0.503766,-0.874183 -0.325966,-0.360539 -0.790221,-0.553155 -0.464256,-0.192617 -1.037166,-0.192617 -0.567972,0 -1.032227,0.192617 -0.464256,0.192616 -0.795161,0.553155 -0.325966,0.3556 -0.503766,0.874183 -0.1778,0.518583 -0.1778,1.170516 0,0.651932 0.1778,1.170515 0.1778,0.513644 0.503766,0.874183 0.330905,0.3556 0.795161,0.548216 0.464255,0.187678 1.032227,0.187678 0.57291,0 1.037166,-0.187678 0.464255,-0.192616 0.790221,-0.548216 0.325967,-0.360539 0.503766,-0.874183 0.1778,-0.518583 0.1778,-1.170515 z m 2.933702,2.331153 q 0.242005,0.325967 0.528461,0.459317 0.291394,0.13335 0.637116,0.13335 0.70626,0 1.081616,-0.498828 0.375355,-0.498827 0.375355,-1.486604 0,-0.918633 -0.335844,-1.348316 -0.330906,-0.434622 -0.948266,-0.434622 -0.429683,0 -0.750711,0.197556 -0.316088,0.197555 -0.587727,0.558094 z m 0,-3.076925 q 0.316089,-0.365478 0.711199,-0.582789 0.40005,-0.21731 0.918633,-0.21731 0.439561,0 0.790222,0.167922 0.355599,0.167922 0.602544,0.488949 0.246944,0.316089 0.375355,0.770466 0.13335,0.454378 0.13335,1.02235 0,0.607482 -0.148167,1.10631 -0.148166,0.498827 -0.429683,0.854427 -0.276577,0.350661 -0.676627,0.548216 -0.40005,0.192617 -0.898877,0.192617 -0.493889,0 -0.834672,-0.182739 -0.335844,-0.187678 -0.587727,-0.528461 l -0.04445,0.454378 q -0.03951,0.187677 -0.227189,0.187677 h -0.567972 v -7.274978 h 0.884061 z m 7.561427,0.103717 q -0.05927,0.108655 -0.182738,0.108655 -0.07408,0 -0.167923,-0.05433 -0.09384,-0.05433 -0.232127,-0.118533 -0.13335,-0.06914 -0.321028,-0.123472 -0.187677,-0.05927 -0.444499,-0.05927 -0.22225,0 -0.40005,0.05927 -0.1778,0.05433 -0.306211,0.153105 -0.123472,0.09878 -0.192616,0.232128 -0.06421,0.128411 -0.06421,0.281516 0,0.192617 0.108656,0.321028 0.113594,0.128411 0.296333,0.22225 0.182738,0.09384 0.414866,0.167922 0.232128,0.06914 0.474133,0.153105 0.246944,0.07902 0.479072,0.1778 0.232127,0.09878 0.414866,0.246944 0.182739,0.148167 0.291394,0.365478 0.113595,0.212372 0.113595,0.513644 0,0.345722 -0.123472,0.642055 -0.123472,0.291394 -0.365478,0.508705 -0.242005,0.212372 -0.592666,0.335844 -0.350661,0.123473 -0.809977,0.123473 -0.523522,0 -0.948266,-0.167923 -0.424744,-0.172861 -0.721077,-0.43956 l 0.207433,-0.335845 q 0.03951,-0.06421 0.09384,-0.09878 0.05433,-0.03457 0.138288,-0.03457 0.0889,0 0.187678,0.06914 0.09878,0.06914 0.237066,0.153105 0.143228,0.08396 0.345722,0.153106 0.202495,0.06914 0.503767,0.06914 0.256822,0 0.449438,-0.06421 0.192617,-0.06914 0.321028,-0.182739 0.128411,-0.113594 0.187677,-0.261761 0.06421,-0.148166 0.06421,-0.316089 0,-0.207433 -0.113594,-0.340783 -0.108656,-0.138288 -0.291395,-0.232127 -0.182738,-0.09878 -0.419805,-0.167922 -0.232127,-0.07408 -0.479072,-0.153106 -0.242005,-0.07902 -0.479072,-0.1778 -0.232127,-0.103716 -0.414866,-0.256822 -0.182739,-0.153105 -0.296333,-0.375355 -0.108656,-0.227189 -0.108656,-0.548216 0,-0.286456 0.118534,-0.548216 0.118533,-0.2667 0.345722,-0.464256 0.227188,-0.202494 0.558094,-0.321027 0.330905,-0.118533 0.755649,-0.118533 0.493889,0 0.884061,0.158044 0.39511,0.153105 0.681566,0.424744 z m 4.711703,1.131004 q 0,-0.306211 -0.0889,-0.558094 -0.08396,-0.256822 -0.251883,-0.439561 -0.162984,-0.187677 -0.40005,-0.286455 -0.237066,-0.103717 -0.538338,-0.103717 -0.632178,0 -1.002594,0.370417 -0.365478,0.365477 -0.454378,1.01741 z m 0.711199,2.345971 q -0.162983,0.197555 -0.390172,0.345722 -0.227188,0.143227 -0.488949,0.237066 -0.256822,0.09384 -0.5334,0.138289 -0.276577,0.04939 -0.548216,0.04939 -0.518583,0 -0.958144,-0.172861 -0.434622,-0.1778 -0.755649,-0.513644 -0.316089,-0.340783 -0.493889,-0.839611 -0.1778,-0.498827 -0.1778,-1.145821 0,-0.523522 0.158045,-0.977899 0.162983,-0.454378 0.464255,-0.785283 0.301272,-0.335844 0.735894,-0.523522 0.434622,-0.192616 0.977899,-0.192616 0.449439,0 0.829733,0.153105 0.385233,0.148167 0.66181,0.434622 0.281517,0.281516 0.439561,0.701322 0.158044,0.414866 0.158044,0.948266 0,0.207433 -0.04445,0.276577 -0.04445,0.06914 -0.167922,0.06914 h -3.343625 q 0.01482,0.474133 0.128411,0.824794 0.118533,0.350661 0.325966,0.587728 0.207434,0.232127 0.493889,0.350661 0.286455,0.113594 0.642055,0.113594 0.330905,0 0.567972,-0.07408 0.242005,-0.07902 0.414866,-0.167923 0.172861,-0.0889 0.286456,-0.162983 0.118533,-0.07902 0.202494,-0.07902 0.108655,0 0.167922,0.08396 z m 1.99037,-3.299176 q 0.237066,-0.513644 0.582788,-0.800099 0.345722,-0.291394 0.84455,-0.291394 0.158044,0 0.301272,0.03457 0.148166,0.03457 0.261761,0.108655 l -0.06421,0.656872 q -0.02963,0.123472 -0.148166,0.123472 -0.06915,0 -0.202495,-0.02963 -0.13335,-0.02963 -0.301272,-0.02963 -0.237066,0 -0.424744,0.06914 -0.182739,0.06914 -0.330905,0.207433 -0.143228,0.13335 -0.261761,0.335844 -0.113594,0.197556 -0.207433,0.454378 v 3.160886 h -0.884061 v -5.00309 h 0.503767 q 0.143227,0 0.197555,0.05433 0.05433,0.05433 0.07408,0.187678 z m 7.047791,-1.002593 -2.03976,5.00309 h -0.79022 l -2.039759,-5.00309 h 0.716139 q 0.10866,0 0.1778,0.05433 0.0691,0.05433 0.0938,0.128411 l 1.26929,3.220154 q 0.0593,0.182738 0.10372,0.355599 0.0444,0.172861 0.084,0.345722 0.0395,-0.172861 0.084,-0.345722 0.0445,-0.172861 0.10866,-0.355599 l 1.28411,-3.220154 q 0.0296,-0.07902 0.0988,-0.128411 0.0692,-0.05433 0.16299,-0.05433 z m 3.41278,2.750959 q -0.60748,0.01975 -1.03717,0.09878 -0.42474,0.07408 -0.69638,0.197556 -0.2667,0.123472 -0.39017,0.291394 -0.11853,0.167922 -0.11853,0.375355 0,0.197556 0.0642,0.340783 0.0642,0.143228 0.17286,0.237067 0.1136,0.0889 0.26176,0.13335 0.15311,0.03951 0.32597,0.03951 0.23213,0 0.42474,-0.04445 0.19262,-0.04939 0.36054,-0.138289 0.17286,-0.0889 0.32597,-0.212372 0.15804,-0.123472 0.30621,-0.281516 z m -2.83986,-2.044699 q 0.41487,-0.400049 0.89394,-0.597605 0.47907,-0.197555 1.06186,-0.197555 0.41981,0 0.74577,0.138289 0.32597,0.138288 0.54822,0.385233 0.22225,0.246944 0.33584,0.597605 0.1136,0.350661 0.1136,0.770466 v 3.200397 h -0.39018 q -0.12841,0 -0.19755,-0.03951 -0.0691,-0.04445 -0.10866,-0.167922 l -0.0988,-0.474133 q -0.19756,0.182739 -0.38524,0.325967 -0.18767,0.138288 -0.39511,0.237066 -0.20743,0.09384 -0.4445,0.143228 -0.23212,0.05433 -0.51858,0.05433 -0.29139,0 -0.54822,-0.07902 -0.25682,-0.08396 -0.44943,-0.246944 -0.18768,-0.162983 -0.30128,-0.409927 -0.10865,-0.251883 -0.10865,-0.592667 0,-0.296333 0.16298,-0.567971 0.16298,-0.276578 0.52846,-0.48895 0.36548,-0.212372 0.95321,-0.345722 0.58772,-0.138289 1.44215,-0.158044 v -0.390172 q 0,-0.582789 -0.25188,-0.879122 -0.25189,-0.301272 -0.7359,-0.301272 -0.32596,0 -0.54821,0.08396 -0.21731,0.07902 -0.3803,0.182739 -0.15804,0.09878 -0.27657,0.182739 -0.1136,0.07902 -0.22719,0.07902 -0.0889,0 -0.15311,-0.04445 -0.0642,-0.04939 -0.10865,-0.118533 z m 5.92172,3.091742 q 0.24201,0.325967 0.52846,0.459317 0.2914,0.13335 0.63712,0.13335 0.70626,0 1.08161,-0.498828 0.37536,-0.498827 0.37536,-1.486604 0,-0.918633 -0.33584,-1.348316 -0.33091,-0.434622 -0.94827,-0.434622 -0.42968,0 -0.75071,0.197556 -0.31609,0.197555 -0.58773,0.558094 z m 0,-3.076925 q 0.31609,-0.365478 0.7112,-0.582789 0.40005,-0.21731 0.91863,-0.21731 0.43956,0 0.79023,0.167922 0.3556,0.167922 0.60254,0.488949 0.24694,0.316089 0.37535,0.770466 0.13335,0.454378 0.13335,1.02235 0,0.607482 -0.14816,1.10631 -0.14817,0.498827 -0.42968,0.854427 -0.27658,0.350661 -0.67663,0.548216 -0.40005,0.192617 -0.89888,0.192617 -0.49389,0 -0.83467,-0.182739 -0.33585,-0.187678 -0.58773,-0.528461 l -0.0444,0.454378 q -0.0395,0.187677 -0.22719,0.187677 h -0.56797 v -7.274978 h 0.88406 z m 5.55624,-2.992965 v 7.274978 h -0.87912 v -7.274978 z m 4.77097,4.227686 q 0,-0.306211 -0.0889,-0.558094 -0.084,-0.256822 -0.25189,-0.439561 -0.16298,-0.187677 -0.40005,-0.286455 -0.23706,-0.103717 -0.53833,-0.103717 -0.63218,0 -1.0026,0.370417 -0.36548,0.365477 -0.45438,1.01741 z m 0.7112,2.345971 q -0.16299,0.197555 -0.39018,0.345722 -0.22718,0.143227 -0.48895,0.237066 -0.25682,0.09384 -0.53339,0.138289 -0.27658,0.04939 -0.54822,0.04939 -0.51858,0 -0.95814,-0.172861 -0.43463,-0.1778 -0.75565,-0.513644 -0.31609,-0.340783 -0.49389,-0.839611 -0.1778,-0.498827 -0.1778,-1.145821 0,-0.523522 0.15804,-0.977899 0.16298,-0.454378 0.46426,-0.785283 0.30127,-0.335844 0.73589,-0.523522 0.43462,-0.192616 0.9779,-0.192616 0.44944,0 0.82973,0.153105 0.38524,0.148167 0.66181,0.434622 0.28152,0.281516 0.43956,0.701322 0.15805,0.414866 0.15805,0.948266 0,0.207433 -0.0444,0.276577 -0.0444,0.06914 -0.16792,0.06914 h -3.34363 q 0.0148,0.474133 0.12841,0.824794 0.11854,0.350661 0.32597,0.587728 0.20743,0.232127 0.49389,0.350661 0.28645,0.113594 0.64205,0.113594 0.33091,0 0.56797,-0.07408 0.24201,-0.07902 0.41487,-0.167923 0.17286,-0.0889 0.28646,-0.162983 0.11853,-0.07902 0.20249,-0.07902 0.10866,0 0.16792,0.08396 z m 4.06964,-3.476975 q -0.0593,0.108655 -0.18274,0.108655 -0.0741,0 -0.16792,-0.05433 -0.0938,-0.05433 -0.23213,-0.118533 -0.13335,-0.06914 -0.32103,-0.123472 -0.18768,-0.05927 -0.4445,-0.05927 -0.22225,0 -0.40005,0.05927 -0.1778,0.05433 -0.30621,0.153105 -0.12347,0.09878 -0.19262,0.232128 -0.0642,0.128411 -0.0642,0.281516 0,0.192617 0.10865,0.321028 0.1136,0.128411 0.29634,0.22225 0.18274,0.09384 0.41486,0.167922 0.23213,0.06914 0.47414,0.153105 0.24694,0.07902 0.47907,0.1778 0.23213,0.09878 0.41486,0.246944 0.18274,0.148167 0.2914,0.365478 0.11359,0.212372 0.11359,0.513644 0,0.345722 -0.12347,0.642055 -0.12347,0.291394 -0.36548,0.508705 -0.242,0.212372 -0.59266,0.335844 -0.35066,0.123473 -0.80998,0.123473 -0.52352,0 -0.94827,-0.167923 -0.42474,-0.172861 -0.72107,-0.43956 l 0.20743,-0.335845 q 0.0395,-0.06421 0.0938,-0.09878 0.0543,-0.03457 0.13829,-0.03457 0.0889,0 0.18768,0.06914 0.0988,0.06914 0.23706,0.153105 0.14323,0.08396 0.34572,0.153106 0.2025,0.06914 0.50377,0.06914 0.25682,0 0.44944,-0.06421 0.19262,-0.06914 0.32103,-0.182739 0.12841,-0.113594 0.18767,-0.261761 0.0642,-0.148166 0.0642,-0.316089 0,-0.207433 -0.1136,-0.340783 -0.10865,-0.138288 -0.29139,-0.232127 -0.18274,-0.09878 -0.4198,-0.167922 -0.23213,-0.07408 -0.47908,-0.153106 -0.242,-0.07902 -0.47907,-0.1778 -0.23213,-0.103716 -0.41486,-0.256822 -0.18274,-0.153105 -0.29634,-0.375355 -0.10865,-0.227189 -0.10865,-0.548216 0,-0.286456 0.11853,-0.548216 0.11853,-0.2667 0.34572,-0.464256 0.22719,-0.202494 0.5581,-0.321027 0.3309,-0.118533 0.75565,-0.118533 0.49388,0 0.88406,0.158044 0.39511,0.153105 0.68156,0.424744 z"
       id="text4"
       style="font-size:9.87777px;font-family:Lato;-inkscape-font-specification:Lato;stroke:#000000;stroke-width:0.2"
       aria-label="Observables" />
    <path
       d="m -19.465242,214.59671 v 2.71639 q -0.533399,0.38523 -1.140882,0.57785 -0.602544,0.18768 -1.323621,0.18768 -0.854427,0 -1.540932,-0.26177 -0.686505,-0.2667 -1.175455,-0.74083 -0.484011,-0.47907 -0.745772,-1.14582 -0.261761,-0.66675 -0.261761,-1.46685 0,-0.80998 0.251883,-1.47673 0.256822,-0.66674 0.726017,-1.14088 0.469194,-0.47907 1.140882,-0.74083 0.671688,-0.26176 1.501421,-0.26176 0.419805,0 0.780344,0.0642 0.360539,0.0593 0.66675,0.1778 0.30621,0.1136 0.567971,0.28152 0.261761,0.16298 0.48895,0.37042 l -0.271639,0.43462 q -0.0642,0.0988 -0.167922,0.12841 -0.09878,0.0247 -0.22225,-0.0494 -0.118533,-0.0691 -0.271638,-0.16792 -0.153106,-0.0988 -0.375356,-0.18768 -0.217311,-0.0938 -0.518583,-0.15804 -0.296333,-0.0642 -0.70626,-0.0642 -0.597605,0 -1.081616,0.19756 -0.484011,0.19261 -0.824794,0.55809 -0.340783,0.36054 -0.523522,0.87912 -0.182738,0.51365 -0.182738,1.1557 0,0.66675 0.187677,1.19521 0.192617,0.52352 0.543278,0.89394 0.355599,0.36548 0.859366,0.55809 0.503766,0.19262 1.131004,0.19262 0.493889,0 0.874183,-0.10866 0.385233,-0.11359 0.750711,-0.31114 v -1.55575 h -1.101372 q -0.09384,0 -0.153105,-0.0543 -0.05433,-0.0543 -0.05433,-0.13335 v -0.54328 z m 2.015064,-0.5976 q 0.237067,-0.51365 0.582789,-0.8001 0.345722,-0.2914 0.844549,-0.2914 0.158044,0 0.301272,0.0346 0.148167,0.0346 0.261761,0.10866 l -0.06421,0.65687 q -0.02963,0.12347 -0.148166,0.12347 -0.06914,0 -0.202494,-0.0296 -0.13335,-0.0296 -0.301272,-0.0296 -0.237067,0 -0.424744,0.0691 -0.182739,0.0692 -0.330906,0.20744 -0.143227,0.13335 -0.261761,0.33584 -0.113594,0.19755 -0.207433,0.45438 v 3.16088 h -0.88406 v -5.00309 h 0.503766 q 0.143228,0 0.197555,0.0543 0.05433,0.0543 0.07408,0.18768 z m 5.393272,1.74836 q -0.607483,0.0198 -1.037166,0.0988 -0.424744,0.0741 -0.696383,0.19755 -0.2667,0.12348 -0.390172,0.2914 -0.118533,0.16792 -0.118533,0.37535 0,0.19756 0.06421,0.34079 0.06421,0.14322 0.172861,0.23706 0.113595,0.0889 0.261761,0.13335 0.153106,0.0395 0.325967,0.0395 0.232127,0 0.424744,-0.0445 0.192616,-0.0494 0.360539,-0.13828 0.172861,-0.0889 0.325966,-0.21238 0.158044,-0.12347 0.306211,-0.28151 z m -2.839859,-2.0447 q 0.414866,-0.40005 0.893938,-0.5976 0.479072,-0.19756 1.06186,-0.19756 0.419806,0 0.745772,0.13829 0.325966,0.13829 0.548216,0.38523 0.22225,0.24695 0.335845,0.59761 0.113594,0.35066 0.113594,0.77047 v 3.20039 h -0.390172 q -0.128411,0 -0.197555,-0.0395 -0.06915,-0.0445 -0.108656,-0.16792 l -0.09878,-0.47413 q -0.197555,0.18274 -0.385233,0.32596 -0.187677,0.13829 -0.39511,0.23707 -0.207434,0.0938 -0.4445,0.14323 -0.232128,0.0543 -0.518583,0.0543 -0.291394,0 -0.548216,-0.079 -0.256822,-0.084 -0.449439,-0.24694 -0.187678,-0.16298 -0.301272,-0.40993 -0.108655,-0.25188 -0.108655,-0.59266 0,-0.29634 0.162983,-0.56798 0.162983,-0.27657 0.528461,-0.48895 0.365477,-0.21237 0.953204,-0.34572 0.587728,-0.13829 1.442155,-0.15804 v -0.39017 q 0,-0.58279 -0.251883,-0.87913 -0.251883,-0.30127 -0.735894,-0.30127 -0.325967,0 -0.548216,0.084 -0.217311,0.079 -0.380295,0.18274 -0.158044,0.0988 -0.276577,0.18274 -0.113595,0.079 -0.227189,0.079 -0.0889,0 -0.153105,-0.0444 -0.06421,-0.0494 -0.108656,-0.11853 z m 8.2973244,0.48401 q -0.2469442,-0.3309 -0.5333996,-0.45931 -0.2864553,-0.13335 -0.6420551,-0.13335 -0.6963828,0 -1.071738,0.49883 -0.3753553,0.49882 -0.3753553,1.42239 0,0.48895 0.083961,0.83961 0.083961,0.34573 0.2469443,0.57292 0.1629832,0.22225 0.4000497,0.32596 0.2370665,0.10372 0.5383385,0.10372 0.4346219,0 0.7556494,-0.19756 0.3259664,-0.19755 0.5976051,-0.55809 z m 0.8791216,-3.46215 v 7.27497 h -0.5235218 q -0.1876777,0 -0.2370665,-0.18274 l -0.079022,-0.60748 q -0.3210275,0.38523 -0.730955,0.6223 -0.4099275,0.23707 -0.948266,0.23707 -0.429683,0 -0.7803438,-0.16299 -0.3506609,-0.16792 -0.5976051,-0.48895 -0.2469443,-0.32102 -0.3802942,-0.80009 -0.1333504,-0.47908 -0.1333504,-1.10138 0,-0.55315 0.1481671,-1.02728 0.1481665,-0.47908 0.4247441,-0.82974 0.2765776,-0.35066 0.6766273,-0.54821 0.4049885,-0.2025 0.9087548,-0.2025 0.4593164,0 0.7852828,0.15805 0.3309053,0.1531 0.5877273,0.42968 v -2.77071 z m 2.3212712,2.27188 v 5.00309 h -0.8791216 v -5.00309 z m 0.1876776,-1.57056 q 0,0.12841 -0.054328,0.242 -0.049389,0.10866 -0.1382888,0.19756 -0.083961,0.084 -0.2024943,0.13335 -0.1135943,0.0494 -0.2420054,0.0494 -0.128411,0 -0.2420053,-0.0494 -0.1086555,-0.0494 -0.1926166,-0.13335 -0.083961,-0.0889 -0.1333499,-0.19756 -0.049389,-0.11359 -0.049389,-0.242 0,-0.12841 0.049389,-0.24201 0.049389,-0.11853 0.1333499,-0.20249 0.083961,-0.0889 0.1926166,-0.13829 0.1135943,-0.0494 0.2420053,-0.0494 0.1284111,0 0.2420054,0.0494 0.1185333,0.0494 0.2024943,0.13829 0.0889,0.084 0.1382888,0.20249 0.054328,0.1136 0.054328,0.24201 z m 4.6030388,3.52636 q 0,-0.30621 -0.0889,-0.55809 -0.083961,-0.25682 -0.2518831,-0.43956 -0.16298325,-0.18768 -0.40004974,-0.28646 -0.23706649,-0.10372 -0.53833849,-0.10372 -0.63217731,0 -1.0025937,0.37042 -0.36547747,0.36548 -0.45437747,1.01741 z m 0.7111995,2.34597 q -0.1629832,0.19756 -0.3901719,0.34572 -0.2271887,0.14323 -0.4889497,0.23707 -0.25682199,0.0938 -0.53339956,0.13829 -0.27657757,0.0494 -0.54821626,0.0494 -0.51858295,0 -0.95814373,-0.17286 -0.43462195,-0.1778 -0.75564945,-0.51365 -0.3160886,-0.34078 -0.4938885,-0.83961 -0.1777999,-0.49883 -0.1777999,-1.14582 0,-0.52352 0.1580443,-0.9779 0.1629833,-0.45438 0.4642553,-0.78528 0.301272,-0.33585 0.73589386,-0.52352 0.43462189,-0.19262 0.97789927,-0.19262 0.44943855,0 0.82973271,0.15311 0.38523306,0.14816 0.66181066,0.43462 0.2815164,0.28151 0.4395607,0.70132 0.1580444,0.41487 0.1580444,0.94827 0,0.20743 -0.04445,0.27657 -0.04445,0.0692 -0.1679221,0.0692 h -3.3436253 q 0.014817,0.47413 0.128411,0.82479 0.1185333,0.35066 0.32596646,0.58773 0.20743318,0.23213 0.49388852,0.35066 0.28645534,0.11359 0.64205508,0.11359 0.33090531,0 0.5679718,-0.0741 0.24200534,-0.079 0.41486634,-0.16792 0.172861,-0.0889 0.2864554,-0.16298 0.1185332,-0.079 0.2024943,-0.079 0.1086554,0 0.167922,0.084 z m 1.9854308,-3.57575 q 0.1629832,-0.18274 0.345722,-0.33091 0.1827387,-0.14816 0.385233,-0.25188 0.2074332,-0.10866 0.4346219,-0.16298 0.2321276,-0.0593 0.4988274,-0.0593 0.4099275,0 0.7210773,0.13829 0.3160886,0.13335 0.5235218,0.38523 0.2123721,0.24695 0.3210275,0.59761 0.1086555,0.35066 0.1086555,0.7754 v 3.18558 H 6.5429249 v -3.18558 q 0,-0.56797 -0.261761,-0.87912 -0.256822,-0.31609 -0.7852827,-0.31609 -0.3901719,0 -0.730955,0.18768 -0.3358442,0.18768 -0.6222996,0.5087 v 3.68441 H 3.2585662 v -5.00309 h 0.5284607 q 0.1876777,0 0.2321276,0.18274 z m 6.1489181,4.3561 q -0.5926663,0 -0.9136938,-0.33091 -0.3160887,-0.33091 -0.3160887,-0.9532 v -3.06211 H 8.4048906 q -0.079022,0 -0.1333499,-0.0444 -0.054328,-0.0494 -0.054328,-0.14817 v -0.35066 l 0.819855,-0.10372 0.2024943,-1.54587 q 0.014817,-0.0741 0.064205,-0.11853 0.054328,-0.0494 0.1382887,-0.0494 h 0.4444997 v 1.72367 h 1.4470929 v 0.63712 H 9.8865561 v 3.00284 q 0,0.31609 0.1531059,0.46919 0.153105,0.15311 0.39511,0.15311 0.138289,0 0.237067,-0.0346 0.103716,-0.0395 0.1778,-0.084 0.07408,-0.0445 0.123472,-0.079 0.05433,-0.0395 0.09384,-0.0395 0.06914,0 0.123472,0.084 l 0.256822,0.41981 q -0.227189,0.21237 -0.548216,0.33584 -0.321028,0.11854 -0.661811,0.11854 z m 4.919125,-4.25732 q -0.05927,0.10865 -0.182739,0.10865 -0.07408,0 -0.167922,-0.0543 -0.09384,-0.0543 -0.232128,-0.11853 -0.13335,-0.0691 -0.321027,-0.12347 -0.187678,-0.0593 -0.4445,-0.0593 -0.22225,0 -0.40005,0.0593 -0.177799,0.0543 -0.30621,0.1531 -0.123473,0.0988 -0.192617,0.23213 -0.0642,0.12841 -0.0642,0.28152 0,0.19261 0.108655,0.32103 0.113594,0.12841 0.296333,0.22225 0.182739,0.0938 0.414866,0.16792 0.232128,0.0691 0.474133,0.1531 0.246945,0.079 0.479072,0.1778 0.232128,0.0988 0.414867,0.24695 0.182738,0.14816 0.291394,0.36547 0.113594,0.21238 0.113594,0.51365 0,0.34572 -0.123472,0.64205 -0.123472,0.2914 -0.365477,0.50871 -0.242006,0.21237 -0.592667,0.33584 -0.35066,0.12348 -0.809977,0.12348 -0.523522,0 -0.948266,-0.16793 -0.424744,-0.17286 -0.721077,-0.43956 l 0.207433,-0.33584 q 0.03951,-0.0642 0.09384,-0.0988 0.05433,-0.0346 0.138289,-0.0346 0.0889,0 0.187677,0.0691 0.09878,0.0692 0.237067,0.15311 0.143228,0.084 0.345722,0.1531 0.202494,0.0692 0.503766,0.0692 0.256822,0 0.449439,-0.0642 0.192616,-0.0691 0.321027,-0.18274 0.128411,-0.11359 0.187678,-0.26176 0.0642,-0.14816 0.0642,-0.31609 0,-0.20743 -0.113594,-0.34078 -0.108655,-0.13829 -0.291394,-0.23213 -0.182739,-0.0988 -0.419805,-0.16792 -0.232128,-0.0741 -0.479072,-0.1531 -0.242006,-0.079 -0.479072,-0.1778 -0.232128,-0.10372 -0.414867,-0.25683 -0.182738,-0.1531 -0.296333,-0.37535 -0.108655,-0.22719 -0.108655,-0.54822 0,-0.28645 0.118533,-0.54821 0.118533,-0.2667 0.345722,-0.46426 0.227189,-0.20249 0.558094,-0.32103 0.330905,-0.11853 0.75565,-0.11853 0.493888,0 0.88406,0.15804 0.395111,0.15311 0.681566,0.42475 z"
       id="text4-3"
       style="font-size:9.87777px;font-family:Lato;-inkscape-font-specification:Lato;stroke:#000000;stroke-width:0.2"
       transform="rotate(-53.118715)"
       aria-label="Gradients" />
    <path
       d="m 110.05021,54.227457 q 0.40993,0 0.72108,-0.108655 0.31608,-0.108656 0.52846,-0.301272 0.21731,-0.197555 0.32596,-0.469194 0.10866,-0.271639 0.10866,-0.597605 0,-0.676628 -0.41981,-1.056922 -0.41486,-0.380294 -1.26435,-0.380294 h -1.13595 v 2.913942 z m 0,-3.669591 q 0.67169,0 1.16557,0.158044 0.49883,0.153105 0.8248,0.439561 0.32596,0.286455 0.48401,0.691444 0.16298,0.404988 0.16298,0.903816 0,0.493888 -0.17286,0.903816 -0.17286,0.409927 -0.5087,0.70626 -0.33091,0.296333 -0.8248,0.464256 -0.48895,0.162983 -1.131,0.162983 h -1.13595 v 2.647242 h -0.9532 v -7.077422 z m 6.18841,4.825291 q -0.60748,0.01976 -1.03716,0.09878 -0.42475,0.07408 -0.69638,0.197556 -0.2667,0.123472 -0.39018,0.291394 -0.11853,0.167922 -0.11853,0.375355 0,0.197556 0.0642,0.340783 0.0642,0.143228 0.17286,0.237067 0.11359,0.0889 0.26176,0.13335 0.1531,0.03951 0.32596,0.03951 0.23213,0 0.42475,-0.04445 0.19262,-0.04939 0.36054,-0.138289 0.17286,-0.0889 0.32596,-0.212372 0.15805,-0.123472 0.30621,-0.281517 z m -2.83985,-2.044699 q 0.41486,-0.40005 0.89393,-0.597605 0.47908,-0.197555 1.06186,-0.197555 0.41981,0 0.74578,0.138288 0.32596,0.138289 0.54821,0.385233 0.22225,0.246945 0.33585,0.597606 0.11359,0.35066 0.11359,0.770466 v 3.200397 h -0.39017 q -0.12841,0 -0.19756,-0.03951 -0.0691,-0.04445 -0.10865,-0.167922 l -0.0988,-0.474133 q -0.19756,0.182739 -0.38523,0.325967 -0.18768,0.138288 -0.39511,0.237066 -0.20744,0.09384 -0.4445,0.143228 -0.23213,0.05433 -0.51859,0.05433 -0.29139,0 -0.54821,-0.07902 -0.25682,-0.08396 -0.44944,-0.246944 -0.18768,-0.162983 -0.30127,-0.409927 -0.10866,-0.251884 -0.10866,-0.592667 0,-0.296333 0.16298,-0.567972 0.16299,-0.276577 0.52847,-0.488949 0.36547,-0.212372 0.9532,-0.345722 0.58773,-0.138289 1.44215,-0.158044 v -0.390172 q 0,-0.582789 -0.25188,-0.879122 -0.25188,-0.301272 -0.73589,-0.301272 -0.32597,0 -0.54822,0.08396 -0.21731,0.07902 -0.38029,0.182739 -0.15805,0.09878 -0.27658,0.182739 -0.11359,0.07902 -0.22719,0.07902 -0.0889,0 -0.1531,-0.04445 -0.0642,-0.04939 -0.10866,-0.118533 z m 5.87233,0.296333 q 0.23706,-0.513644 0.58279,-0.800099 0.34572,-0.291394 0.84455,-0.291394 0.15804,0 0.30127,0.03457 0.14816,0.03457 0.26176,0.108655 l -0.0642,0.656872 q -0.0296,0.123472 -0.14816,0.123472 -0.0691,0 -0.2025,-0.02963 -0.13335,-0.02963 -0.30127,-0.02963 -0.23707,0 -0.42474,0.06915 -0.18274,0.06914 -0.33091,0.207433 -0.14323,0.13335 -0.26176,0.335844 -0.11359,0.197556 -0.20743,0.454378 v 3.160886 h -0.88406 v -5.00309 h 0.50376 q 0.14323,0 0.19756,0.05433 0.0543,0.05433 0.0741,0.187678 z m 5.39327,1.748366 q -0.60748,0.01976 -1.03717,0.09878 -0.42474,0.07408 -0.69638,0.197556 -0.2667,0.123472 -0.39017,0.291394 -0.11853,0.167922 -0.11853,0.375355 0,0.197556 0.0642,0.340783 0.0642,0.143228 0.17286,0.237067 0.1136,0.0889 0.26176,0.13335 0.15311,0.03951 0.32597,0.03951 0.23213,0 0.42474,-0.04445 0.19262,-0.04939 0.36054,-0.138289 0.17286,-0.0889 0.32597,-0.212372 0.15804,-0.123472 0.30621,-0.281517 z m -2.83986,-2.044699 q 0.41487,-0.40005 0.89394,-0.597605 0.47907,-0.197555 1.06186,-0.197555 0.4198,0 0.74577,0.138288 0.32597,0.138289 0.54822,0.385233 0.22225,0.246945 0.33584,0.597606 0.1136,0.35066 0.1136,0.770466 v 3.200397 h -0.39018 q -0.12841,0 -0.19755,-0.03951 -0.0691,-0.04445 -0.10866,-0.167922 l -0.0988,-0.474133 q -0.19755,0.182739 -0.38523,0.325967 -0.18768,0.138288 -0.39511,0.237066 -0.20743,0.09384 -0.4445,0.143228 -0.23213,0.05433 -0.51858,0.05433 -0.2914,0 -0.54822,-0.07902 -0.25682,-0.08396 -0.44944,-0.246944 -0.18767,-0.162983 -0.30127,-0.409927 -0.10865,-0.251884 -0.10865,-0.592667 0,-0.296333 0.16298,-0.567972 0.16298,-0.276577 0.52846,-0.488949 0.36548,-0.212372 0.9532,-0.345722 0.58773,-0.138289 1.44216,-0.158044 v -0.390172 q 0,-0.582789 -0.25188,-0.879122 -0.25189,-0.301272 -0.7359,-0.301272 -0.32596,0 -0.54821,0.08396 -0.21732,0.07902 -0.3803,0.182739 -0.15804,0.09878 -0.27658,0.182739 -0.11359,0.07902 -0.22718,0.07902 -0.0889,0 -0.15311,-0.04445 -0.0642,-0.04939 -0.10866,-0.118533 z m 5.03766,4.29683 v -5.00309 h 0.52846 q 0.18768,0 0.23213,0.182738 l 0.0642,0.513644 q 0.27658,-0.340783 0.6223,-0.558094 0.34572,-0.217311 0.8001,-0.217311 0.50377,0 0.81492,0.281517 0.31609,0.281516 0.45438,0.760588 0.10865,-0.271639 0.27657,-0.469194 0.17286,-0.197555 0.38524,-0.325966 0.21237,-0.128411 0.44944,-0.187678 0.242,-0.05927 0.48894,-0.05927 0.39512,0 0.70133,0.128411 0.31115,0.123473 0.52352,0.365478 0.21731,0.242005 0.3309,0.597605 0.1136,0.350661 0.1136,0.805038 v 3.185581 h -0.88406 v -3.185581 q 0,-0.587727 -0.25682,-0.888999 -0.25683,-0.306211 -0.74084,-0.306211 -0.21731,0 -0.41486,0.07902 -0.19262,0.07408 -0.34079,0.22225 -0.14816,0.148167 -0.23706,0.375355 -0.084,0.22225 -0.084,0.518583 v 3.185581 h -0.88406 v -3.185581 q 0,-0.602544 -0.24201,-0.898877 -0.24201,-0.296333 -0.70626,-0.296333 -0.32597,0 -0.60254,0.1778 -0.27658,0.172861 -0.50871,0.474133 v 3.728858 z m 11.47303,-3.047292 q 0,-0.306211 -0.0889,-0.558094 -0.084,-0.256822 -0.25188,-0.439561 -0.16298,-0.187677 -0.40005,-0.286455 -0.23707,-0.103717 -0.53834,-0.103717 -0.63218,0 -1.00259,0.370417 -0.36548,0.365477 -0.45438,1.01741 z m 0.7112,2.345971 q -0.16298,0.197555 -0.39017,0.345722 -0.22719,0.143227 -0.48895,0.237066 -0.25682,0.09384 -0.5334,0.138289 -0.27658,0.04939 -0.54821,0.04939 -0.51859,0 -0.95815,-0.172861 -0.43462,-0.1778 -0.75565,-0.513644 -0.31609,-0.340783 -0.49389,-0.839611 -0.1778,-0.498827 -0.1778,-1.145821 0,-0.523522 0.15805,-0.9779 0.16298,-0.454377 0.46425,-0.785282 0.30128,-0.335844 0.7359,-0.523522 0.43462,-0.192617 0.9779,-0.192617 0.44944,0 0.82973,0.153106 0.38523,0.148166 0.66181,0.434622 0.28152,0.281516 0.43956,0.701321 0.15805,0.414867 0.15805,0.948266 0,0.207434 -0.0444,0.276578 -0.0445,0.06914 -0.16793,0.06914 h -3.34362 q 0.0148,0.474133 0.12841,0.824794 0.11853,0.350661 0.32597,0.587727 0.20743,0.232128 0.49388,0.350661 0.28646,0.113595 0.64206,0.113595 0.3309,0 0.56797,-0.07408 0.24201,-0.07902 0.41487,-0.167922 0.17286,-0.0889 0.28645,-0.162983 0.11854,-0.07902 0.2025,-0.07902 0.10865,0 0.16792,0.08396 z m 2.65712,0.780343 q -0.59266,0 -0.91369,-0.330905 -0.31609,-0.330905 -0.31609,-0.953205 v -3.062109 h -0.60254 q -0.079,0 -0.13335,-0.04445 -0.0543,-0.04939 -0.0543,-0.148166 v -0.350661 l 0.81985,-0.103717 0.2025,-1.545871 q 0.0148,-0.07408 0.0642,-0.118533 0.0543,-0.04939 0.13829,-0.04939 h 0.4445 v 1.723671 h 1.44709 v 0.637116 h -1.44709 v 3.002843 q 0,0.316088 0.15311,0.469194 0.1531,0.153105 0.39511,0.153105 0.13829,0 0.23706,-0.03457 0.10372,-0.03951 0.1778,-0.08396 0.0741,-0.04445 0.12348,-0.07902 0.0543,-0.03951 0.0938,-0.03951 0.0691,0 0.12348,0.08396 l 0.25682,0.419805 q -0.22719,0.212372 -0.54822,0.335844 -0.32103,0.118533 -0.66181,0.118533 z m 5.32905,-3.126314 q 0,-0.306211 -0.0889,-0.558094 -0.084,-0.256822 -0.25188,-0.439561 -0.16299,-0.187677 -0.40005,-0.286455 -0.23707,-0.103717 -0.53834,-0.103717 -0.63218,0 -1.0026,0.370417 -0.36547,0.365477 -0.45437,1.01741 z m 0.7112,2.345971 q -0.16299,0.197555 -0.39017,0.345722 -0.22719,0.143227 -0.48895,0.237066 -0.25683,0.09384 -0.5334,0.138289 -0.27658,0.04939 -0.54822,0.04939 -0.51858,0 -0.95814,-0.172861 -0.43463,-0.1778 -0.75565,-0.513644 -0.31609,-0.340783 -0.49389,-0.839611 -0.1778,-0.498827 -0.1778,-1.145821 0,-0.523522 0.15804,-0.9779 0.16299,-0.454377 0.46426,-0.785282 0.30127,-0.335844 0.73589,-0.523522 0.43462,-0.192617 0.9779,-0.192617 0.44944,0 0.82973,0.153106 0.38524,0.148166 0.66181,0.434622 0.28152,0.281516 0.43957,0.701321 0.15804,0.414867 0.15804,0.948266 0,0.207434 -0.0445,0.276578 -0.0444,0.06914 -0.16792,0.06914 h -3.34363 q 0.0148,0.474133 0.12841,0.824794 0.11854,0.350661 0.32597,0.587727 0.20743,0.232128 0.49389,0.350661 0.28645,0.113595 0.64205,0.113595 0.33091,0 0.56798,-0.07408 0.242,-0.07902 0.41486,-0.167922 0.17286,-0.0889 0.28646,-0.162983 0.11853,-0.07902 0.20249,-0.07902 0.10866,0 0.16792,0.08396 z m 1.99037,-3.299176 q 0.23706,-0.513644 0.58279,-0.800099 0.34572,-0.291394 0.84455,-0.291394 0.15804,0 0.30127,0.03457 0.14816,0.03457 0.26176,0.108655 l -0.0642,0.656872 q -0.0296,0.123472 -0.14816,0.123472 -0.0691,0 -0.2025,-0.02963 -0.13335,-0.02963 -0.30127,-0.02963 -0.23707,0 -0.42474,0.06915 -0.18274,0.06914 -0.33091,0.207433 -0.14323,0.13335 -0.26176,0.335844 -0.11359,0.197556 -0.20743,0.454378 v 3.160886 h -0.88406 v -5.00309 h 0.50376 q 0.14323,0 0.19756,0.05433 0.0543,0.05433 0.0741,0.187678 z m 5.64514,-0.1778 q -0.0593,0.108656 -0.18273,0.108656 -0.0741,0 -0.16793,-0.05433 -0.0938,-0.05433 -0.23212,-0.118533 -0.13335,-0.06914 -0.32103,-0.123472 -0.18768,-0.05927 -0.4445,-0.05927 -0.22225,0 -0.40005,0.05927 -0.1778,0.05433 -0.30621,0.153105 -0.12347,0.09878 -0.19262,0.232128 -0.0642,0.128411 -0.0642,0.281516 0,0.192617 0.10865,0.321028 0.1136,0.128411 0.29633,0.22225 0.18274,0.09384 0.41487,0.167922 0.23213,0.06914 0.47413,0.153105 0.24695,0.07902 0.47908,0.1778 0.23212,0.09878 0.41486,0.246944 0.18274,0.148167 0.2914,0.365478 0.11359,0.212372 0.11359,0.513644 0,0.345722 -0.12347,0.642055 -0.12347,0.291394 -0.36548,0.508705 -0.242,0.212372 -0.59267,0.335844 -0.35066,0.123472 -0.80997,0.123472 -0.52352,0 -0.94827,-0.167922 -0.42474,-0.172861 -0.72108,-0.43956 l 0.20744,-0.335845 q 0.0395,-0.06421 0.0938,-0.09878 0.0543,-0.03457 0.13829,-0.03457 0.0889,0 0.18767,0.06914 0.0988,0.06914 0.23707,0.153105 0.14323,0.08396 0.34572,0.153106 0.2025,0.06914 0.50377,0.06914 0.25682,0 0.44944,-0.06421 0.19261,-0.06914 0.32102,-0.182739 0.12841,-0.113595 0.18768,-0.261761 0.0642,-0.148167 0.0642,-0.316089 0,-0.207433 -0.1136,-0.340783 -0.10865,-0.138289 -0.29139,-0.232127 -0.18274,-0.09878 -0.41981,-0.167923 -0.23212,-0.07408 -0.47907,-0.153105 -0.242,-0.07902 -0.47907,-0.1778 -0.23213,-0.103716 -0.41487,-0.256822 -0.18274,-0.153105 -0.29633,-0.375355 -0.10866,-0.227189 -0.10866,-0.548216 0,-0.286456 0.11854,-0.548217 0.11853,-0.266699 0.34572,-0.464255 0.22719,-0.202494 0.55809,-0.321027 0.33091,-0.118534 0.75565,-0.118534 0.49389,0 0.88406,0.158045 0.39511,0.153105 0.68157,0.424744 z"
       id="text4-1"
       style="font-size:9.87777px;font-family:Lato;-inkscape-font-specification:Lato;stroke:#000000;stroke-width:0.2"
       inkscape:transform-center-y="4.9040248"
       transform="rotate(50.148988)"
       aria-label="Parameters" />
  </g>
</svg>
